<svg width="120" height="36" viewBox="0 0 120 36" fill="none" xmlns="http://www.w3.org/2000/svg">
<path d="M9.33737 20.0574C8.40347 20.1725 6.76856 20.5177 5.83447 21.3237C3.03219 23.7409 4.6669 28 10.3884 28C13.6576 28 16.927 25.9279 19.4958 22.7047C15.7595 20.9781 12.7235 19.7117 9.33737 20.057V20.0574Z" fill="#2BA6DF"/>
<path d="M30.9315 22.5581C36.3024 24.3114 37.4958 24.4283 37.4958 24.4283V5.72714C37.4958 2.57126 34.87 0 31.5283 0H6.4636C3.24097 0 0.49585 2.57146 0.49585 5.72734V30.2731C0.49585 33.4287 3.12165 36 6.4636 36H31.5283C34.7507 36 37.4958 33.4285 37.4958 30.2727V30.0391C37.4958 30.0391 27.9477 26.1821 23.0541 23.8444C19.8316 27.7014 15.6542 30.156 11.2381 30.156C3.83821 30.156 1.33174 23.8444 4.91235 19.7537C5.62831 18.8184 6.94131 18.0004 8.97027 17.5329C12.0736 16.8315 17.0865 18.0004 21.7413 19.5197C22.5766 18.0004 23.2927 16.364 23.7702 14.6107H9.32845V13.2081H16.7283V10.4029H7.65747V9.00029H16.7283V5.37727C16.7283 5.37727 16.7283 4.79284 17.325 4.79284H20.9058V9.11757H29.8573V10.4033H20.9058V12.9748H28.1863C27.4704 15.7798 26.396 18.351 25.083 20.572C27.4702 21.39 29.4991 22.0915 30.9315 22.5587V22.5581Z" fill="#2BA6DF"/>
<path d="M54.3926 8.0002L62.358 25.4446H58.1338L55.9614 20.8089H49.444L47.2717 25.4446H44.4958L52.5821 8.48797C52.5821 8.48797 52.8232 8 53.306 8H54.3924L54.3926 8.0002ZM50.1682 19.2231H55.2373L52.7027 13.7335L50.1682 19.2231ZM67.7544 25.5832H63.8924V8.99262C63.8924 8.50464 64.1337 8.26066 64.737 8.26066H67.7544V25.5832ZM74.9956 25.4698H71.1338V12.9049C71.1338 12.417 71.3749 12.173 71.9782 12.173H74.9956V25.4698ZM79.7181 12.4336H82.2529V13.6536C82.7355 13.2876 83.2184 12.9216 83.8217 12.7996C84.4254 12.5556 85.0287 12.4336 85.8735 12.4336C86.718 12.4336 87.4424 12.5556 88.0461 12.9216C88.7701 13.2876 89.2527 13.6536 89.7354 14.2635C90.218 14.8735 90.5802 15.4835 90.8217 16.2154C91.0629 16.9474 91.1835 17.6793 91.1835 18.5331C91.1835 19.6308 91.0629 20.607 90.7013 21.4609C90.3391 22.3147 89.9769 23.1686 89.3736 23.7786C88.7699 24.3885 88.1665 24.9983 87.3217 25.3645C86.4769 25.7302 85.632 25.8522 84.6665 25.8522H83.3388C82.977 25.8522 82.6148 25.73 82.2529 25.6083V30H78.3904V14.0195C78.27 12.4336 78.8733 12.4336 79.7181 12.4336ZM82.2527 21.9487C82.2527 22.3149 82.2527 22.5586 82.3733 22.8026C82.494 23.0466 82.6148 23.2904 82.856 23.5348C83.0971 23.7786 83.3386 23.9006 83.5804 24.0226C83.8215 24.1447 84.1837 24.1447 84.5459 24.1447C84.9076 24.1447 85.1492 24.0226 85.5114 23.7786C85.7525 23.5348 86.1147 23.2906 86.2357 22.8026C86.3564 22.3149 86.5975 21.9487 86.718 21.3387C86.8391 20.7289 86.9595 20.241 86.9595 19.509C86.9595 18.6549 86.9595 17.9231 86.8388 17.3131C86.7178 16.7032 86.5973 16.2152 86.3562 15.7272C86.1147 15.3613 85.8735 14.9953 85.6322 14.7513C85.3907 14.5073 85.0285 14.3853 84.6663 14.3853C84.4252 14.3853 84.1837 14.3853 83.9423 14.5073C83.7008 14.6293 83.4597 14.7513 83.3386 14.8733C83.0975 14.9953 82.9768 15.2393 82.7353 15.3613C82.4938 15.6052 82.3731 15.7272 82.2527 15.9712V21.9489V21.9487ZM98.5478 12.4336C99.5133 12.4336 100.237 12.5556 100.961 12.6776C101.565 12.7996 102.168 13.0436 102.651 13.4096C103.134 13.7756 103.375 14.1415 103.617 14.5075C103.858 14.9955 103.979 15.4835 103.979 15.9714V25.6085H100.117V24.6325C99.8755 24.8765 99.6343 24.9985 99.5133 25.1203L98.7889 25.4865C98.5478 25.6085 98.3062 25.7302 97.9445 25.7302C97.5823 25.8524 97.2201 25.8524 96.8581 25.8524C96.2548 25.8524 95.7721 25.7302 95.2889 25.6085C94.8066 25.4865 94.4444 25.2425 94.0822 24.8765C93.7201 24.6325 93.4785 24.2665 93.3579 23.7786C93.2372 23.4126 93.1167 22.9248 93.1167 22.4366C93.1167 21.9485 93.2374 21.4605 93.3579 21.0947C93.4785 20.7285 93.8405 20.3626 94.0822 19.9968C94.3234 19.6308 94.8062 19.3868 95.1682 19.1428C95.6509 18.8989 96.013 18.6549 96.6168 18.4109C97.099 18.1671 97.5819 18.0451 98.1856 17.8009C98.6682 17.6789 99.2715 17.4349 99.7544 17.3129L100.237 17.1909V15.849C100.237 15.483 100.237 15.1171 100.116 14.7511L99.7542 14.0191C99.6335 13.8971 99.3924 13.6532 99.2719 13.6532C99.0304 13.5312 98.7893 13.5312 98.5476 13.5312C98.5476 13.5312 96.4957 13.5312 94.6853 15.1171L93.8405 13.7751C93.4789 14.0193 95.6513 12.4336 98.5478 12.4336ZM99.8749 18.8991C99.5131 19.021 99.1509 19.2652 98.7893 19.509L97.7029 20.241C97.3407 20.4852 97.0996 20.7289 96.979 21.0949C96.7374 21.3389 96.7374 21.7049 96.7374 21.9489C96.7374 22.1929 96.7374 22.4368 96.8581 22.681C96.9788 22.9248 96.9787 23.047 97.0992 23.291C97.2203 23.5348 97.3407 23.5348 97.4614 23.657C97.5821 23.779 97.7029 23.779 97.9441 23.779C98.3062 23.779 98.5478 23.657 98.9096 23.535L99.9959 22.803V18.8993L99.8749 18.8991ZM109.237 29.878H106.703L106.582 27.5603C106.582 27.5603 109.72 27.6823 110.685 26.4624C111.047 25.9744 111.289 24.6327 111.289 24.6327L105.013 12.4338H109.237L113.22 20.3632L116.72 12.4336H119.496L113.099 26.8286C112.858 27.3166 111.892 29.8782 109.237 29.878Z" fill="#3F3A39"/>
<path d="M73.4958 11C74.6004 11 75.4958 10.1046 75.4958 9C75.4958 7.89543 74.6004 7 73.4958 7C72.3913 7 71.4958 7.89543 71.4958 9C71.4958 10.1046 72.3913 11 73.4958 11Z" fill="#2BA6DF"/>
</svg>
