<svg width="119" height="36" viewBox="0 0 119 36" fill="none" xmlns="http://www.w3.org/2000/svg">
<path d="M8.83761 20.0574C7.90371 20.1725 6.26881 20.5177 5.33471 21.3237C2.53243 23.7409 4.16715 28 9.88864 28C13.1579 28 16.4273 25.9279 18.9961 22.7047C15.2597 20.9781 12.2238 19.7117 8.83761 20.057V20.0574Z" fill="#2BA6DF"/>
<rect x="2" y="5" width="35" height="25" fill="#D9D9D9"/>
<path d="M30.4317 22.5581C35.8026 24.3114 36.9961 24.4283 36.9961 24.4283V5.72714C36.9961 2.57126 34.3703 0 31.0285 0H5.96385C2.74122 0 -0.00390625 2.57146 -0.00390625 5.72734V30.2731C-0.00390625 33.4287 2.62189 36 5.96385 36H31.0285C34.251 36 36.9961 33.4285 36.9961 30.2727V30.0391C36.9961 30.0391 27.4479 26.1821 22.5543 23.8444C19.3319 27.7014 15.1544 30.156 10.7383 30.156C3.33845 30.156 0.831981 23.8444 4.41259 19.7537C5.12856 18.8184 6.44156 18.0004 8.47052 17.5329C11.5738 16.8315 16.5868 18.0004 21.2415 19.5197C22.0768 18.0004 22.793 16.364 23.2705 14.6107H8.8287V13.2081H16.2286V10.4029H7.15772V9.00029H16.2286V5.37727C16.2286 5.37727 16.2286 4.79284 16.8252 4.79284H20.406V9.11757H29.3576V10.4033H20.406V12.9748H27.6866C26.9706 15.7798 25.8963 18.351 24.5833 20.572C26.9704 21.39 28.9994 22.0915 30.4317 22.5587V22.5581Z" fill="#2BA6DF"/>
<path d="M53.8929 8.0002L61.8582 25.4446H57.634L55.4617 20.8089H48.9443L46.7719 25.4446H43.9961L52.0823 8.48797C52.0823 8.48797 52.3234 8 52.8063 8H53.8927L53.8929 8.0002ZM49.6685 19.2231H54.7375L52.203 13.7335L49.6685 19.2231ZM67.2547 25.5832H63.3926V8.99262C63.3926 8.50464 63.634 8.26066 64.2373 8.26066H67.2547V25.5832ZM74.4958 25.4698H70.634V12.9049C70.634 12.417 70.8751 12.173 71.4785 12.173H74.4958V25.4698ZM79.2184 12.4336H81.7531V13.6536C82.2358 13.2876 82.7186 12.9216 83.3219 12.7996C83.9256 12.5556 84.5289 12.4336 85.3738 12.4336C86.2182 12.4336 86.9426 12.5556 87.5463 12.9216C88.2703 13.2876 88.7529 13.6536 89.2356 14.2635C89.7183 14.8735 90.0804 15.4835 90.322 16.2154C90.5631 16.9474 90.6838 17.6793 90.6838 18.5331C90.6838 19.6308 90.5631 20.607 90.2015 21.4609C89.8393 22.3147 89.4771 23.1686 88.8738 23.7786C88.2701 24.3885 87.6668 24.9983 86.8219 25.3645C85.9771 25.7302 85.1323 25.8522 84.1668 25.8522H82.8391C82.4773 25.8522 82.1151 25.73 81.7531 25.6083V30H77.8907V14.0195C77.7702 12.4336 78.3735 12.4336 79.2184 12.4336ZM81.7529 21.9487C81.7529 22.3149 81.7529 22.5586 81.8736 22.8026C81.9942 23.0466 82.1151 23.2904 82.3562 23.5348C82.5973 23.7786 82.8389 23.9006 83.0806 24.0226C83.3217 24.1447 83.6839 24.1447 84.0461 24.1447C84.4079 24.1447 84.6494 24.0226 85.0116 23.7786C85.2527 23.5348 85.6149 23.2906 85.736 22.8026C85.8566 22.3149 86.0978 21.9487 86.2182 21.3387C86.3393 20.7289 86.4598 20.241 86.4598 19.509C86.4598 18.6549 86.4598 17.9231 86.3391 17.3131C86.218 16.7032 86.0976 16.2152 85.8564 15.7272C85.6149 15.3613 85.3738 14.9953 85.1325 14.7513C84.8909 14.5073 84.5288 14.3853 84.1666 14.3853C83.9254 14.3853 83.6839 14.3853 83.4426 14.5073C83.2011 14.6293 82.9599 14.7513 82.8389 14.8733C82.5977 14.9953 82.4771 15.2393 82.2355 15.3613C81.994 15.6052 81.8734 15.7272 81.7529 15.9712V21.9489V21.9487ZM98.048 12.4336C99.0135 12.4336 99.7377 12.5556 100.462 12.6776C101.065 12.7996 101.669 13.0436 102.151 13.4096C102.634 13.7756 102.875 14.1415 103.117 14.5075C103.358 14.9955 103.479 15.4835 103.479 15.9714V25.6085H99.6168V24.6325C99.3757 24.8765 99.1346 24.9985 99.0135 25.1203L98.2891 25.4865C98.048 25.6085 97.8065 25.7302 97.4447 25.7302C97.0825 25.8524 96.7203 25.8524 96.3583 25.8524C95.755 25.8524 95.2724 25.7302 94.7891 25.6085C94.3069 25.4865 93.9447 25.2425 93.5825 24.8765C93.2203 24.6325 92.9788 24.2665 92.8581 23.7786C92.7374 23.4126 92.617 22.9248 92.617 22.4366C92.617 21.9485 92.7376 21.4605 92.8581 21.0947C92.9788 20.7285 93.3408 20.3626 93.5825 19.9968C93.8236 19.6308 94.3065 19.3868 94.6684 19.1428C95.1511 18.8989 95.5133 18.6549 96.117 18.4109C96.5993 18.1671 97.0821 18.0451 97.6858 17.8009C98.1685 17.6789 98.7718 17.4349 99.2546 17.3129L99.7373 17.1909V15.849C99.7373 15.483 99.7373 15.1171 99.6166 14.7511L99.2544 14.0191C99.1338 13.8971 98.8927 13.6532 98.7722 13.6532C98.5307 13.5312 98.2895 13.5312 98.0478 13.5312C98.0478 13.5312 95.9959 13.5312 94.1856 15.1171L93.3408 13.7751C92.9792 14.0193 95.1515 12.4336 98.048 12.4336ZM99.3751 18.8991C99.0133 19.021 98.6511 19.2652 98.2895 19.509L97.2032 20.241C96.841 20.4852 96.5999 20.7289 96.4792 21.0949C96.2377 21.3389 96.2377 21.7049 96.2377 21.9489C96.2377 22.1929 96.2377 22.4368 96.3583 22.681C96.479 22.9248 96.479 23.047 96.5995 23.291C96.7205 23.5348 96.841 23.5348 96.9616 23.657C97.0823 23.779 97.2032 23.779 97.4443 23.779C97.8065 23.779 98.048 23.657 98.4098 23.535L99.4962 22.803V18.8993L99.3751 18.8991ZM108.738 29.878H106.203L106.082 27.5603C106.082 27.5603 109.22 27.6823 110.185 26.4624C110.548 25.9744 110.789 24.6327 110.789 24.6327L104.513 12.4338H108.737L112.72 20.3632L116.22 12.4336H118.996L112.6 26.8286C112.358 27.3166 111.393 29.8782 108.738 29.878Z" fill="white"/>
<path d="M72.9961 11C74.1007 11 74.9961 10.1046 74.9961 9C74.9961 7.89543 74.1007 7 72.9961 7C71.8915 7 70.9961 7.89543 70.9961 9C70.9961 10.1046 71.8915 11 72.9961 11Z" fill="#2BA6DF"/>
</svg>
