<svg width="36" height="25" viewBox="0 0 36 25" fill="none" xmlns="http://www.w3.org/2000/svg">
<path d="M32.7656 0H3.23438C1.72671 0 0.5 1.21909 0.5 2.71739V22.2826C0.5 23.7809 1.72671 25 3.23438 25H32.7656C34.2733 25 35.5 23.7809 35.5 22.2826V2.71739C35.5 1.21909 34.2733 0 32.7656 0Z" fill="#5D647F"/>
<path d="M12.5312 10.8695H5.96875C5.36466 10.8695 4.875 10.3829 4.875 9.78256V5.43473C4.875 4.8344 5.36466 4.34778 5.96875 4.34778H12.5312C13.1353 4.34778 13.625 4.8344 13.625 5.43473V9.78256C13.625 10.3829 13.1353 10.8695 12.5312 10.8695Z" fill="#FFD100"/>
<path d="M8.70312 17.9348H5.96875C5.36466 17.9348 4.875 17.4482 4.875 16.8478V16.3044C4.875 15.704 5.36466 15.2174 5.96875 15.2174H8.70312C9.30722 15.2174 9.79688 15.704 9.79688 16.3044V16.8478C9.79688 17.4482 9.30722 17.9348 8.70312 17.9348ZM15.8125 17.9348H13.0781C12.474 17.9348 11.9844 17.4482 11.9844 16.8478V16.3044C11.9844 15.704 12.474 15.2174 13.0781 15.2174H15.8125C16.4166 15.2174 16.9062 15.704 16.9062 16.3044V16.8478C16.9062 17.4482 16.4166 17.9348 15.8125 17.9348ZM22.9219 17.9348H20.1875C19.5834 17.9348 19.0938 17.4482 19.0938 16.8478V16.3044C19.0938 15.704 19.5834 15.2174 20.1875 15.2174H22.9219C23.526 15.2174 24.0156 15.704 24.0156 16.3044V16.8478C24.0156 17.4482 23.526 17.9348 22.9219 17.9348ZM30.0312 17.9348H27.2969C26.6928 17.9348 26.2031 17.4482 26.2031 16.8478V16.3044C26.2031 15.704 26.6928 15.2174 27.2969 15.2174H30.0312C30.6353 15.2174 31.125 15.704 31.125 16.3044V16.8478C31.125 17.4482 30.6353 17.9348 30.0312 17.9348Z" fill="#B8BAC0"/>
<path d="M16.3594 21.1956H5.42188C5.11959 21.1956 4.875 20.9523 4.875 20.6521C4.875 20.352 5.11959 20.1086 5.42188 20.1086H16.3594C16.6617 20.1086 16.9062 20.352 16.9062 20.6521C16.9062 20.9523 16.6617 21.1956 16.3594 21.1956ZM23.4688 21.1956H18.5469C18.2446 21.1956 18 20.9523 18 20.6521C18 20.352 18.2446 20.1086 18.5469 20.1086H23.4688C23.771 20.1086 24.0156 20.352 24.0156 20.6521C24.0156 20.9523 23.771 21.1956 23.4688 21.1956Z" fill="#8A8895"/>
<path d="M13.625 8.15213H8.15625V7.06517H13.625V5.97821H8.15625V4.34778H7.0625V10.8695H8.15625V9.23908H13.625V8.15213Z" fill="#FF9500"/>
<path d="M27.8438 10.8695C29.6559 10.8695 31.125 9.40958 31.125 7.60865C31.125 5.80772 29.6559 4.34778 27.8438 4.34778C26.0316 4.34778 24.5625 5.80772 24.5625 7.60865C24.5625 9.40958 26.0316 10.8695 27.8438 10.8695Z" fill="#FF4F19"/>
</svg>
