<svg width="96" height="96" viewBox="0 0 96 96" fill="none" xmlns="http://www.w3.org/2000/svg">
<circle cx="48" cy="48" r="48" fill="#D16A41" fill-opacity="0.12"/>
<path d="M47.43 21C32.3045 21 20 33.3045 20 48.43C20 63.5555 32.3045 75.86 47.43 75.86C62.5555 75.86 74.86 63.5555 74.86 48.43C74.86 33.3045 62.5555 21 47.43 21Z" fill="#F44336"/>
<path d="M57.5309 55.2985C58.4246 56.1925 58.4246 57.637 57.5309 58.5309C57.3189 58.7435 57.0669 58.9121 56.7895 59.027C56.5121 59.142 56.2148 59.2009 55.9145 59.2006C55.3295 59.2006 54.7443 58.9767 54.2985 58.5309L47.4297 51.6618L40.561 58.531C40.349 58.7436 40.0971 58.9122 39.8197 59.0271C39.5424 59.142 39.2451 59.201 38.9449 59.2007C38.6446 59.201 38.3473 59.142 38.0699 59.0271C37.7925 58.9122 37.5406 58.7436 37.3285 58.531C36.4349 57.637 36.4349 56.1925 37.3285 55.2985L44.1977 48.4297L37.3284 41.561C36.4348 40.6669 36.4348 39.2225 37.3284 38.3285C38.2225 37.4349 39.6669 37.4349 40.561 38.3285L47.4297 45.1977L54.2985 38.3284C55.1925 37.4348 56.637 37.4348 57.5309 38.3284C58.4246 39.2225 58.4246 40.6669 57.5309 41.561L50.6618 48.4297L57.5309 55.2985Z" fill="white"/>
</svg>
