<svg width="24" height="25" viewBox="0 0 24 25" fill="none" xmlns="http://www.w3.org/2000/svg">
<g clip-path="url(#clip0_4413_127684)">
<path d="M12.5454 0.5C11.9429 0.5 11.4545 0.988438 11.4545 1.59092V5.95456C11.4545 6.55705 11.9429 7.04548 12.5454 7.04548C13.1479 7.04548 13.6363 6.55705 13.6363 5.95456V1.59092C13.6363 0.988438 13.1479 0.5 12.5454 0.5Z" fill="#58EC93"/>
<path d="M12.5455 17.9546C11.943 17.9546 11.4546 18.443 11.4546 19.0455V23.4092C11.4546 24.0116 11.943 24.5001 12.5455 24.5001C13.148 24.5001 13.6364 24.0116 13.6364 23.4092V19.0455C13.6364 18.443 13.148 17.9546 12.5455 17.9546Z" fill="#CBF9DE"/>
<path d="M8.68848 7.10029L5.60289 4.0146C5.17698 3.58856 4.48623 3.58856 4.06014 4.0146C3.63409 4.44065 3.63409 5.13135 4.06014 5.55735L7.14573 8.64304C7.24691 8.74449 7.36714 8.82494 7.49951 8.87978C7.63188 8.93461 7.77378 8.96276 7.91706 8.96259C8.06034 8.96277 8.20224 8.93463 8.33461 8.87979C8.46698 8.82496 8.58721 8.7445 8.68839 8.64304C9.11453 8.21699 9.11453 7.52634 8.68848 7.10029Z" fill="#79F0A9"/>
<path d="M22.3636 11.4092H20.1818C19.5793 11.4092 19.0909 11.8976 19.0909 12.5001C19.0909 13.1026 19.5793 13.591 20.1818 13.591H22.3636C22.9661 13.591 23.4545 13.1026 23.4545 12.5001C23.4545 11.8976 22.9661 11.4092 22.3636 11.4092ZM17.9451 16.3571C17.5192 15.9311 16.8284 15.9312 16.4024 16.3571C15.9763 16.7832 15.9764 17.4738 16.4024 17.8999L19.4881 20.9854C19.5893 21.0869 19.7095 21.1673 19.8419 21.2221C19.9743 21.277 20.1162 21.3051 20.2595 21.3049C20.4028 21.3051 20.5447 21.277 20.677 21.2221C20.8094 21.1673 20.9296 21.0869 21.0308 20.9854C21.4569 20.5594 21.4569 19.8687 21.0308 19.4427L17.9451 16.3571Z" fill="#EEFDF4"/>
<path d="M7.09089 12.5001C7.09089 11.8976 6.60246 11.4092 5.99997 11.4092H1.63633C1.03385 11.4092 0.54541 11.8976 0.54541 12.5001C0.54541 13.1026 1.03385 13.591 1.63633 13.591H5.99997C6.60246 13.591 7.09089 13.1026 7.09089 12.5001Z" fill="#8FF2B7"/>
<path d="M8.68843 16.3571C8.26248 15.9311 7.57168 15.9311 7.14568 16.3571L4.06014 19.4427C3.63409 19.8686 3.63409 20.5594 4.06014 20.9854C4.16133 21.0869 4.28158 21.1673 4.41396 21.2222C4.54635 21.277 4.68827 21.3051 4.83156 21.3049C4.97484 21.3051 5.11674 21.277 5.24912 21.2222C5.38149 21.1674 5.50172 21.0869 5.60289 20.9854L8.68843 17.8999C9.11448 17.4739 9.11448 16.7832 8.68843 16.3571Z" fill="#B2F6CD"/>
</g>
<defs>
<clipPath id="clip0_4413_127684">
<rect width="24" height="24" fill="white" transform="translate(0 0.5)"/>
</clipPath>
</defs>
</svg>
