<svg width="182" height="52" viewBox="0 0 182 52" fill="none" xmlns="http://www.w3.org/2000/svg">
<path d="M23.2532 0.837137V11.8234L14.8817 3.53737C13.9924 2.66404 13.459 2.66703 12.4633 3.53737L9.30078 5.86275L23.9972 20.5592C24.8769 21.3077 25.3648 21.7063 26.0435 21.6753C26.7223 21.7063 27.2101 21.3077 28.0899 20.5592L42.7863 5.86275L39.6237 3.53737C38.6281 2.66703 38.0946 2.66404 37.2054 3.53737L28.6479 12.0075V0.837137C28.6511 0.191013 28.5557 0.0014924 27.5438 8.79567e-06H24.3573C23.3454 0.0014924 23.25 0.191013 23.2532 0.837137Z" fill="white"/>
<path d="M51.1622 23.2539H40.1759L48.4619 14.8824C49.3352 13.9932 49.3322 13.4597 48.4619 12.464L46.1365 9.30151L31.4401 23.9979C30.6915 24.8777 30.293 25.3655 30.3239 26.0443C30.293 26.723 30.6915 27.2109 31.4401 28.0906L46.1365 42.787L48.4619 39.6245C49.3322 38.6288 49.3352 38.0953 48.4619 37.2061L39.9918 28.6487H51.1622C51.8083 28.6519 51.9978 28.5564 51.9993 27.5445V24.358C51.9978 23.3461 51.8083 23.2507 51.1622 23.2539Z" fill="white"/>
<path d="M28.8339 51.1629V40.1766L37.2053 48.4626C38.0946 49.336 38.628 49.333 39.6237 48.4626L42.7863 46.1373L28.0898 31.4409C27.2101 30.6923 26.7223 30.2937 26.0435 30.3247C25.3648 30.2937 24.8769 30.6923 23.9972 31.4409L9.30078 46.1373L12.4633 48.4626C13.459 49.333 13.9924 49.336 14.8817 48.4626L23.4391 39.9926V51.1629C23.4359 51.809 23.5314 51.9985 24.5432 52H27.7297C28.7416 51.9985 28.8371 51.809 28.8339 51.1629Z" fill="white"/>
<path d="M0.837137 28.8346L11.8234 28.8347L3.5374 37.2061C2.66407 38.0953 2.66706 38.6288 3.5374 39.6245L5.86278 42.787L20.5592 28.0906C21.3078 27.2109 21.7063 26.723 21.6754 26.0443C21.7063 25.3655 21.3078 24.8777 20.5592 23.9979L5.86278 9.30151L3.5374 12.464C2.66706 13.4597 2.66407 13.9932 3.5374 14.8824L12.0075 23.4399L0.837138 23.4399C0.191014 23.4367 0.00149296 23.5321 9.23176e-06 24.544L8.79408e-06 27.7305C0.00149226 28.7424 0.191013 28.8378 0.837137 28.8346Z" fill="white"/>
<path d="M75.44 42.3898L64 9.60979H70.512L78.828 34.7778L87.188 9.60979H93.7L82.304 42.3898H75.44Z" fill="white"/>
<path d="M106.04 42.9178C103.576 42.9178 101.42 42.3605 99.5723 41.2458C97.7243 40.1311 96.2869 38.6351 95.2603 36.7578C94.2336 34.8511 93.7203 32.7245 93.7203 30.3778C93.7203 28.0018 94.2336 25.8751 95.2603 23.9978C96.3163 22.1205 97.7389 20.6391 99.5283 19.5538C101.318 18.4685 103.342 17.9258 105.6 17.9258C108.064 17.9258 110.162 18.4685 111.892 19.5538C113.623 20.6098 114.943 22.0178 115.852 23.7778C116.791 25.5378 117.26 27.4885 117.26 29.6298C117.26 30.0698 117.231 30.5098 117.172 30.9498C117.143 31.3605 117.07 31.7271 116.952 32.0498H99.7043C99.8803 33.8391 100.555 35.2618 101.728 36.3178C102.902 37.3445 104.354 37.8578 106.084 37.8578C107.404 37.8578 108.519 37.5791 109.428 37.0218C110.367 36.4645 111.1 35.7165 111.628 34.7778L116.292 37.0658C115.559 38.7671 114.268 40.1751 112.42 41.2898C110.602 42.3751 108.475 42.9178 106.04 42.9178ZM105.6 22.6778C104.163 22.6778 102.916 23.1178 101.86 23.9978C100.834 24.8485 100.159 26.0658 99.8363 27.6498H111.1C110.983 26.1831 110.411 24.9951 109.384 24.0858C108.387 23.1471 107.126 22.6778 105.6 22.6778Z" fill="white"/>
<path d="M121.63 42.3898V9.08179H127.394V42.3898H121.63Z" fill="white"/>
<path d="M144.42 42.9178C142.073 42.9178 139.932 42.3751 137.996 41.2898C136.089 40.2045 134.564 38.7231 133.42 36.8458C132.305 34.9685 131.748 32.8271 131.748 30.4218C131.748 28.0165 132.305 25.8751 133.42 23.9978C134.564 22.1205 136.089 20.6391 137.996 19.5538C139.902 18.4685 142.044 17.9258 144.42 17.9258C146.737 17.9258 148.849 18.4685 150.756 19.5538C152.662 20.6391 154.188 22.1205 155.332 23.9978C156.476 25.8751 157.048 28.0165 157.048 30.4218C157.048 32.8271 156.476 34.9831 155.332 36.8898C154.188 38.7671 152.662 40.2485 150.756 41.3338C148.849 42.3898 146.737 42.9178 144.42 42.9178ZM144.42 37.6378C145.681 37.6378 146.81 37.3298 147.808 36.7138C148.805 36.0978 149.582 35.2471 150.14 34.1618C150.726 33.0765 151.02 31.8298 151.02 30.4218C151.02 29.0431 150.726 27.8111 150.14 26.7258C149.582 25.6405 148.805 24.7898 147.808 24.1738C146.81 23.5285 145.681 23.2058 144.42 23.2058C143.1 23.2058 141.941 23.5285 140.944 24.1738C139.946 24.7898 139.154 25.6405 138.568 26.7258C138.01 27.8111 137.732 29.0431 137.732 30.4218C137.732 31.8298 138.01 33.0765 138.568 34.1618C139.154 35.2471 139.946 36.0978 140.944 36.7138C141.941 37.3298 143.1 37.6378 144.42 37.6378Z" fill="white"/>
<path d="M158.403 42.3898L166.763 30.3778L158.359 18.4538H165.135L170.151 25.8898L175.211 18.4538H181.943L173.583 30.3778L181.899 42.3898H175.167L170.151 34.9098L165.179 42.3898H158.403Z" fill="white"/>
</svg>
