<svg width="36" height="24" viewBox="0 0 36 24" fill="none" xmlns="http://www.w3.org/2000/svg">
<path d="M33.2305 24H2.76951C1.51853 24 0.5 22.9725 0.5 21.7035V2.2966C0.5 1.03452 1.51853 0.00695801 2.76951 0.00695801H33.2236C34.4814 0.00695801 35.4999 1.03452 35.4999 2.2966V21.7035C35.5 22.9725 34.4815 24 33.2305 24Z" fill="#505278"/>
<path d="M33.2305 0.00695801H18V24H33.2305C34.4883 24 35.5 22.9725 35.5 21.7104V2.2966C35.5 1.03452 34.4815 0.00695801 33.2305 0.00695801Z" fill="#424566"/>
<path d="M18.7588 0.00713446C18.5263 7.08989 12.7432 12.7726 5.66796 12.7726C3.83591 12.7726 2.08594 12.3933 0.5 11.6968V8.61404C2.02441 9.50367 3.7881 10.0071 5.66796 10.0071C11.2324 10.0071 15.7852 5.55885 16.0175 0.000244141H18.7587V0.00713446H18.7588Z" fill="#575982"/>
<path d="M18 0.00695801V4.01385C18.4444 2.75178 18.711 1.40696 18.7588 0.00695801H18ZM35.5001 14.0345V16.8345C33.8594 16.5173 32.2598 16.3794 30.6739 16.538C27.8097 16.8276 25.1504 18.1794 22.2999 20.7932C21.841 21.215 21.3852 21.6403 20.9326 22.0691C20.2491 22.7105 19.5654 23.3587 18.8477 23.9932H14.418C16.0586 22.8897 17.5283 21.5036 19.0664 20.0553C19.5244 19.6277 19.9892 19.1794 20.4609 18.7518C23.7695 15.7242 26.9277 14.1449 30.4004 13.7932C32.1163 13.6208 33.8526 13.7587 35.5001 14.0345Z" fill="#505278"/>
<path d="M14.418 24H18V21.0552C16.8311 22.1379 15.6758 23.1518 14.418 24Z" fill="#575982"/>
<path d="M7.82814 11.6827H4.47168C3.95897 11.6827 3.54199 11.2621 3.54199 10.7448V8.49652C3.54199 7.97927 3.95897 7.55859 4.47168 7.55859H7.82814C8.34085 7.55859 8.75782 7.97927 8.75782 8.49652V10.7448C8.75099 11.269 8.34079 11.6827 7.82814 11.6827Z" fill="#424566"/>
<path d="M7.82813 11.6276H4.46484C3.98633 11.6276 3.59668 11.2345 3.59668 10.7518V8.49658C3.59668 8.01384 3.98633 7.62073 4.46484 7.62073H7.82813C8.30663 7.62073 8.69628 8.01384 8.69628 8.49658V10.7518C8.69628 11.2345 8.30663 11.6276 7.82813 11.6276Z" fill="#FEBD55"/>
<path d="M8.69628 9.69653V9.5586H6.91893V8.95171L7.37695 8.48964H8.69628C8.69628 8.44135 8.68946 8.39311 8.68263 8.35171H7.3428C7.32231 8.35171 7.30859 8.3586 7.29493 8.37238L6.81643 8.85513H6.21481V7.62756H6.0781V8.85513H5.48337L5.00487 8.37238C4.99192 8.35986 4.97491 8.35252 4.957 8.35171H3.61034C3.60351 8.39311 3.59668 8.44135 3.59668 8.48964H4.92968L5.38086 8.94482V9.5586H3.59668V9.69653H5.38086V10.3103L4.92968 10.7655H3.59668C3.59668 10.8138 3.60351 10.862 3.61034 10.9034H4.957C4.97749 10.9034 4.99121 10.8965 5.00487 10.8827L5.48337 10.4H6.0781V11.6276H6.21481V10.4H6.81637L7.29487 10.8827C7.30853 10.8965 7.32219 10.9034 7.34274 10.9034H8.68257C8.6894 10.862 8.69623 10.8138 8.69623 10.7655H7.37689L6.91888 10.3034V9.69653H8.69628ZM6.78222 10.262H5.51758V8.98616H6.78222V10.262Z" fill="#B5613C"/>
<path d="M31.836 11.5861C31.8052 11.5867 31.7747 11.5796 31.7472 11.5655C31.6446 11.5172 31.6036 11.393 31.6583 11.2896C32.1847 10.2344 32.1847 9.02754 31.6583 7.97236C31.6105 7.86888 31.6515 7.7448 31.7472 7.6965C31.8497 7.64821 31.9727 7.68961 32.0206 7.78614C32.6085 8.95858 32.6085 10.3034 32.0206 11.4758C31.9796 11.5448 31.9112 11.5861 31.836 11.5861ZM31.1319 11.193C31.6856 10.1999 31.6856 9.0551 31.1319 8.06199C31.0772 7.96547 30.9542 7.92407 30.8516 7.98614C30.756 8.04132 30.7149 8.16547 30.7765 8.26888C31.2618 9.13785 31.2618 10.131 30.7765 10.993C30.7218 11.0896 30.756 11.2206 30.8516 11.2758C30.8826 11.2944 30.9181 11.304 30.9542 11.3033C31.0225 11.2965 31.0909 11.2551 31.1319 11.193ZM30.2569 10.9103C30.7969 10.1172 30.7969 9.13096 30.2569 8.33096C30.1954 8.23443 30.0655 8.2137 29.9698 8.27577C29.8742 8.33785 29.8536 8.46888 29.9151 8.56541C30.3527 9.2137 30.3527 10.0275 29.9151 10.6758C29.8536 10.7723 29.8741 10.8964 29.9698 10.9654C30.004 10.993 30.045 10.9999 30.0861 10.9999C30.1544 11.0069 30.2159 10.9724 30.2569 10.9103ZM29.3341 10.6482C29.6349 10.3724 29.7989 10.0068 29.7989 9.62754C29.7989 9.24827 29.6349 8.88272 29.3341 8.60687C29.252 8.53101 29.1222 8.53102 29.047 8.62065C28.9718 8.7034 28.9718 8.83443 29.0606 8.91029C29.2725 9.11029 29.3888 9.36547 29.3888 9.62754C29.3888 9.88962 29.2725 10.1448 29.0606 10.3448C28.9786 10.4207 28.9718 10.5517 29.047 10.6344C29.088 10.6758 29.1427 10.7034 29.1974 10.7034C29.2452 10.7034 29.293 10.6827 29.3341 10.6482Z" fill="#CAD4FF"/>
<path d="M17.7197 20.5241H3.80175C3.68553 20.5241 3.59668 20.4345 3.59668 20.3172C3.59668 20.2 3.68553 20.1104 3.80175 20.1104H17.7197C17.8359 20.1104 17.9248 20.2 17.9248 20.3172C17.9248 20.4345 17.8291 20.5241 17.7197 20.5241Z" fill="#E6EAFF"/>
<path d="M32.2529 20.5241H29.6143C29.498 20.5241 29.4092 20.4345 29.4092 20.3172C29.4092 20.2 29.498 20.1104 29.6143 20.1104H32.2529C32.3692 20.1104 32.458 20.2 32.458 20.3172C32.458 20.4345 32.3623 20.5241 32.2529 20.5241ZM28.4932 20.3172C28.4932 20.2 28.4043 20.1104 28.2881 20.1104H25.6494C25.5332 20.1104 25.4443 20.2 25.4443 20.3172C25.4443 20.4345 25.5332 20.5241 25.6494 20.5241H28.2881C28.4043 20.5241 28.4932 20.4276 28.4932 20.3172Z" fill="#CAD4FF"/>
<path d="M3.80179 4.71035C3.68556 4.71035 3.59671 4.62072 3.59671 4.50346V3.68968C3.59671 3.57242 3.68556 3.48279 3.80179 3.48279C3.91801 3.48279 4.00686 3.57242 4.00686 3.68968V4.49657C4.00686 4.61383 3.91801 4.71035 3.80179 4.71035ZM5.12113 4.50346V3.68968C5.12113 3.57242 5.03228 3.48279 4.91605 3.48279C4.79983 3.48279 4.71098 3.57242 4.71098 3.68968V4.49657C4.71098 4.61383 4.79983 4.70346 4.91605 4.70346C5.03222 4.71035 5.12113 4.61383 5.12113 4.50346ZM6.24222 4.50346V3.68968C6.24222 3.57242 6.15337 3.48279 6.03715 3.48279C5.92092 3.48279 5.83208 3.57242 5.83208 3.68968V4.49657C5.83208 4.61383 5.92092 4.70346 6.03715 4.70346C6.14649 4.71035 6.24222 4.61383 6.24222 4.50346ZM7.35649 4.50346V3.68968C7.35649 3.57242 7.26764 3.48279 7.15142 3.48279C7.03519 3.48279 6.94634 3.57242 6.94634 3.68968V4.49657C6.94634 4.61383 7.03519 4.70346 7.15142 4.70346C7.26758 4.71035 7.35649 4.61383 7.35649 4.50346ZM4.22559 17.0138H4.19138C3.8496 17.0138 3.56934 16.7311 3.56934 16.3863V15.4069C3.56934 15.0621 3.8496 14.7794 4.19138 14.7794H4.22559C4.56738 14.7794 4.84764 15.0621 4.84764 15.4069V16.3863C4.84793 16.4688 4.83203 16.5505 4.80087 16.6268C4.76972 16.703 4.72391 16.7723 4.66609 16.8307C4.60827 16.889 4.53958 16.9352 4.46398 16.9667C4.38838 16.9981 4.30736 17.0141 4.22559 17.0138ZM4.19144 15.1931C4.13532 15.1934 4.08158 15.216 4.0419 15.256C4.00222 15.2961 3.97981 15.3503 3.97954 15.4069V16.3862C3.97981 16.4428 4.00222 16.497 4.0419 16.5371C4.08158 16.5771 4.13532 16.5997 4.19144 16.6H4.22565C4.28176 16.5997 4.3355 16.5771 4.37519 16.5371C4.41487 16.497 4.43728 16.4428 4.43755 16.3862V15.4069C4.43728 15.3503 4.41487 15.2961 4.37519 15.256C4.3355 15.216 4.28176 15.1934 4.22565 15.1931H4.19144ZM5.88672 17.0138H5.85251C5.51072 17.0138 5.23046 16.7311 5.23046 16.3863V15.4069C5.23046 15.0621 5.51072 14.7794 5.85251 14.7794H5.88672C6.2285 14.7794 6.50876 15.0621 6.50876 15.4069V16.3863C6.50905 16.4688 6.49316 16.5505 6.462 16.6268C6.43084 16.703 6.38503 16.7723 6.32721 16.8307C6.26939 16.889 6.20071 16.9352 6.1251 16.9667C6.0495 16.9981 5.96849 17.0141 5.88672 17.0138ZM5.85257 15.1931C5.79645 15.1934 5.74271 15.216 5.70303 15.256C5.66335 15.2961 5.64094 15.3503 5.64067 15.4069V16.3862C5.64094 16.4428 5.66335 16.497 5.70303 16.5371C5.74271 16.5771 5.79645 16.5997 5.85257 16.6H5.88677C5.94289 16.5997 5.99663 16.5771 6.03631 16.5371C6.07599 16.497 6.09841 16.4428 6.09868 16.3862V15.4069C6.09841 15.3503 6.07599 15.2961 6.03631 15.256C5.99663 15.216 5.94289 15.1934 5.88677 15.1931H5.85257ZM7.5479 17.0138H7.51369C7.17191 17.0138 6.89165 16.7311 6.89165 16.3863V15.4069C6.89165 15.0621 7.17191 14.7794 7.51369 14.7794H7.5479C7.88969 14.7794 8.16995 15.0621 8.16995 15.4069V16.3863C8.16995 16.731 7.88969 17.0138 7.5479 17.0138ZM7.51369 15.1931C7.45758 15.1934 7.40384 15.216 7.36416 15.256C7.32448 15.2961 7.30206 15.3503 7.30179 15.4069V16.3862C7.30206 16.4428 7.32448 16.497 7.36416 16.5371C7.40384 16.5771 7.45758 16.5997 7.51369 16.6H7.5479C7.60402 16.5997 7.65776 16.5771 7.69744 16.5371C7.73712 16.497 7.75953 16.4428 7.7598 16.3862V15.4069C7.75953 15.3503 7.73712 15.2961 7.69744 15.256C7.65776 15.216 7.60402 15.1934 7.5479 15.1931H7.51369ZM9.20903 17.0138H9.17482C8.83303 17.0138 8.55277 16.7311 8.55277 16.3863V15.4069C8.55277 15.0621 8.83303 14.7794 9.17482 14.7794H9.20903C9.55082 14.7794 9.83108 15.0621 9.83108 15.4069V16.3863C9.83108 16.731 9.55082 17.0138 9.20903 17.0138ZM9.17482 15.1931C9.1187 15.1934 9.06496 15.216 9.02528 15.256C8.9856 15.2961 8.96319 15.3503 8.96292 15.4069V16.3862C8.96319 16.4428 8.9856 16.497 9.02528 16.5371C9.06496 16.5771 9.1187 16.5997 9.17482 16.6H9.20903C9.26514 16.5997 9.31888 16.5771 9.35857 16.5371C9.39825 16.497 9.42066 16.4428 9.42093 16.3862V15.4069C9.42066 15.3503 9.39825 15.2961 9.35857 15.256C9.31888 15.216 9.26514 15.1934 9.20903 15.1931H9.17482ZM11.7588 17.0138H11.7246C11.3828 17.0138 11.1025 16.7311 11.1025 16.3863V15.4069C11.1025 15.0621 11.3828 14.7794 11.7246 14.7794H11.7588C12.1006 14.7794 12.3808 15.0621 12.3808 15.4069V16.3863C12.3809 16.731 12.1006 17.0138 11.7588 17.0138ZM11.7247 15.1931C11.6685 15.1934 11.6148 15.216 11.5751 15.256C11.5354 15.2961 11.513 15.3503 11.5127 15.4069V16.3862C11.513 16.4428 11.5354 16.497 11.5751 16.5371C11.6148 16.5771 11.6685 16.5997 11.7247 16.6H11.7589C11.815 16.5997 11.8687 16.5771 11.9084 16.5371C11.9481 16.497 11.9705 16.4428 11.9708 16.3862V15.4069C11.9705 15.3503 11.9481 15.2961 11.9084 15.256C11.8687 15.216 11.815 15.1934 11.7589 15.1931H11.7247ZM13.4199 17.0138H13.3857C13.0439 17.0138 12.7637 16.7311 12.7637 16.3863V15.4069C12.7637 15.0621 13.0439 14.7794 13.3857 14.7794H13.4199C13.7617 14.7794 14.042 15.0621 14.042 15.4069V16.3863C14.042 16.731 13.7617 17.0138 13.4199 17.0138ZM13.3858 15.1931C13.3297 15.1934 13.2759 15.216 13.2362 15.256C13.1966 15.2961 13.1741 15.3503 13.1739 15.4069V16.3862C13.1741 16.4428 13.1966 16.497 13.2362 16.5371C13.2759 16.5771 13.3297 16.5997 13.3858 16.6H13.42C13.4761 16.5997 13.5298 16.5771 13.5695 16.5371C13.6092 16.497 13.6316 16.4428 13.6319 16.3862V15.4069C13.6316 15.3503 13.6092 15.2961 13.5695 15.256C13.5298 15.216 13.4761 15.1934 13.42 15.1931H13.3858ZM15.0811 17.0138H15.0468C14.7051 17.0138 14.4248 16.7311 14.4248 16.3863V15.4069C14.4248 15.0621 14.7051 14.7794 15.0468 14.7794H15.0811C15.4228 14.7794 15.7031 15.0621 15.7031 15.4069V16.3863C15.7032 16.731 15.4229 17.0138 15.0811 17.0138ZM15.0469 15.1931C14.9908 15.1934 14.937 15.216 14.8974 15.256C14.8577 15.2961 14.8353 15.3503 14.835 15.4069V16.3862C14.8353 16.4428 14.8577 16.497 14.8974 16.5371C14.937 16.5771 14.9908 16.5997 15.0469 16.6H15.0811C15.1372 16.5997 15.191 16.5771 15.2306 16.5371C15.2703 16.497 15.2927 16.4428 15.293 16.3862V15.4069C15.2927 15.3503 15.2703 15.2961 15.2306 15.256C15.191 15.216 15.1372 15.1934 15.0811 15.1931H15.0469ZM16.7422 17.0138H16.708C16.3662 17.0138 16.0859 16.7311 16.0859 16.3863V15.4069C16.0859 15.0621 16.3662 14.7794 16.708 14.7794H16.7422C17.084 14.7794 17.3642 15.0621 17.3642 15.4069V16.3863C17.3643 16.731 17.084 17.0138 16.7422 17.0138ZM16.708 15.1931C16.6519 15.1934 16.5982 15.216 16.5585 15.256C16.5188 15.2961 16.4964 15.3503 16.4961 15.4069V16.3862C16.4964 16.4428 16.5188 16.497 16.5585 16.5371C16.5982 16.5771 16.6519 16.5997 16.708 16.6H16.7422C16.7984 16.5997 16.8521 16.5771 16.8918 16.5371C16.9315 16.497 16.9539 16.4428 16.9541 16.3862V15.4069C16.9539 15.3503 16.9315 15.2961 16.8918 15.256C16.8521 15.216 16.7984 15.1934 16.7422 15.1931H16.708Z" fill="#E6EAFF"/>
<path d="M19.292 17.0139H19.2578C18.916 17.0139 18.6357 16.7311 18.6357 16.3863V15.407C18.6357 15.0622 18.916 14.7794 19.2578 14.7794H19.292C19.6338 14.7794 19.914 15.0622 19.914 15.407V16.3863C19.914 16.7311 19.6338 17.0139 19.292 17.0139ZM19.2578 15.1931C19.2017 15.1934 19.1479 15.216 19.1083 15.2561C19.0686 15.2961 19.0462 15.3503 19.0459 15.4069V16.3863C19.0462 16.4429 19.0686 16.4971 19.1083 16.5371C19.1479 16.5771 19.2017 16.5998 19.2578 16.6H19.292C19.3481 16.5998 19.4019 16.5771 19.4415 16.5371C19.4812 16.4971 19.5036 16.4429 19.5039 16.3863V15.4069C19.5036 15.3503 19.4812 15.2961 19.4415 15.2561C19.4019 15.216 19.3481 15.1934 19.292 15.1931H19.2578ZM20.9531 17.0139H20.919C20.5772 17.0139 20.2969 16.7311 20.2969 16.3863V15.407C20.2969 15.0622 20.5772 14.7794 20.919 14.7794H20.9531C21.2949 14.7794 21.5752 15.0622 21.5752 15.407V16.3863C21.5752 16.7311 21.2949 17.0139 20.9531 17.0139ZM20.919 15.1931C20.8629 15.1934 20.8091 15.216 20.7694 15.2561C20.7298 15.2961 20.7073 15.3503 20.7071 15.4069V16.3863C20.7073 16.4429 20.7298 16.4971 20.7694 16.5371C20.8091 16.5771 20.8629 16.5998 20.919 16.6H20.9531C21.0092 16.5998 21.063 16.5771 21.1027 16.5371C21.1423 16.4971 21.1648 16.4429 21.165 16.3863V15.4069C21.1648 15.3503 21.1423 15.2961 21.1027 15.2561C21.063 15.216 21.0092 15.1934 20.9531 15.1931H20.919ZM22.6143 17.0139H22.58C22.2383 17.0139 21.958 16.7311 21.958 16.3863V15.407C21.958 15.0622 22.2383 14.7794 22.58 14.7794H22.6143C22.956 14.7794 23.2363 15.0622 23.2363 15.407V16.3863C23.2364 16.7311 22.956 17.0139 22.6143 17.0139ZM22.5801 15.1931C22.524 15.1934 22.4702 15.216 22.4306 15.2561C22.3909 15.2961 22.3685 15.3503 22.3682 15.4069V16.3863C22.3685 16.4429 22.3909 16.4971 22.4306 16.5371C22.4702 16.5771 22.524 16.5998 22.5801 16.6H22.6143C22.6704 16.5998 22.7242 16.5771 22.7638 16.5371C22.8035 16.4971 22.8259 16.4429 22.8262 16.3863V15.4069C22.8259 15.3503 22.8035 15.2961 22.7638 15.2561C22.7242 15.216 22.6704 15.1934 22.6143 15.1931H22.5801ZM24.2754 17.0139H24.2412C23.8994 17.0139 23.6191 16.7311 23.6191 16.3863V15.407C23.6191 15.0622 23.8994 14.7794 24.2412 14.7794H24.2754C24.6172 14.7794 24.8974 15.0622 24.8974 15.407V16.3863C24.8975 16.7311 24.6172 17.0139 24.2754 17.0139ZM24.2412 15.1931C24.1851 15.1934 24.1314 15.216 24.0917 15.2561C24.052 15.2961 24.0296 15.3503 24.0293 15.4069V16.3863C24.0296 16.4429 24.052 16.4971 24.0917 16.5371C24.1314 16.5771 24.1851 16.5998 24.2412 16.6H24.2754C24.3316 16.5998 24.3853 16.5771 24.425 16.5371C24.4647 16.4971 24.4871 16.4429 24.4873 16.3863V15.4069C24.4871 15.3503 24.4647 15.2961 24.425 15.2561C24.3853 15.216 24.3316 15.1934 24.2754 15.1931H24.2412ZM26.8252 17.0139H26.791C26.4492 17.0139 26.169 16.7311 26.169 16.3863V15.407C26.169 15.0622 26.4492 14.7794 26.791 14.7794H26.8252C27.167 14.7794 27.4473 15.0622 27.4473 15.407V16.3863C27.4473 16.7311 27.167 17.0139 26.8252 17.0139ZM26.791 15.1931C26.7349 15.1934 26.6811 15.216 26.6415 15.2561C26.6018 15.2961 26.5794 15.3503 26.5791 15.4069V16.3863C26.5794 16.4429 26.6018 16.4971 26.6415 16.5371C26.6811 16.5771 26.7349 16.5998 26.791 16.6H26.8252C26.8813 16.5998 26.9351 16.5771 26.9747 16.5371C27.0144 16.4971 27.0368 16.4429 27.0371 16.3863V15.4069C27.0368 15.3503 27.0144 15.2961 26.9747 15.2561C26.9351 15.216 26.8813 15.1934 26.8252 15.1931H26.791ZM28.4863 17.0139H28.4522C28.1104 17.0139 27.8301 16.7311 27.8301 16.3863V15.407C27.8301 15.0622 28.1104 14.7794 28.4522 14.7794H28.4863C28.8281 14.7794 29.1084 15.0622 29.1084 15.407V16.3863C29.1084 16.7311 28.8281 17.0139 28.4863 17.0139ZM28.4521 15.1931C28.396 15.1934 28.3423 15.216 28.3026 15.2561C28.2629 15.2961 28.2405 15.3503 28.2402 15.4069V16.3863C28.2405 16.4429 28.2629 16.4971 28.3026 16.5371C28.3423 16.5771 28.396 16.5998 28.4521 16.6H28.4863C28.5424 16.5998 28.5961 16.5771 28.6358 16.5371C28.6755 16.4971 28.6979 16.4429 28.6982 16.3863V15.4069C28.6979 15.3503 28.6755 15.2961 28.6358 15.2561C28.5961 15.216 28.5424 15.1934 28.4863 15.1931H28.4521ZM30.1475 17.0139H30.1133C29.7715 17.0139 29.4912 16.7311 29.4912 16.3863V15.407C29.4912 15.0622 29.7715 14.7794 30.1133 14.7794H30.1475C30.4893 14.7794 30.7695 15.0622 30.7695 15.407V16.3863C30.7695 16.7311 30.4893 17.0139 30.1475 17.0139ZM30.1133 15.1931C30.0572 15.1934 30.0035 15.216 29.9638 15.2561C29.9241 15.2961 29.9017 15.3503 29.9014 15.4069V16.3863C29.9017 16.4429 29.9241 16.4971 29.9638 16.5371C30.0035 16.5771 30.0572 16.5998 30.1133 16.6H30.1475C30.2036 16.5998 30.2574 16.5771 30.2971 16.5371C30.3367 16.4971 30.3592 16.4429 30.3594 16.3863V15.4069C30.3592 15.3503 30.3367 15.2961 30.2971 15.2561C30.2574 15.216 30.2036 15.1934 30.1475 15.1931H30.1133ZM31.8086 17.0139H31.7744C31.4326 17.0139 31.1523 16.7311 31.1523 16.3863V15.407C31.1523 15.0622 31.4326 14.7794 31.7744 14.7794H31.8086C32.1504 14.7794 32.4306 15.0622 32.4306 15.407V16.3863C32.4307 16.7311 32.1504 17.0139 31.8086 17.0139ZM31.7744 15.1931C31.7183 15.1934 31.6646 15.216 31.6249 15.2561C31.5852 15.2961 31.5628 15.3503 31.5625 15.4069V16.3863C31.5628 16.4429 31.5852 16.4971 31.6249 16.5371C31.6646 16.5771 31.7183 16.5998 31.7744 16.6H31.8086C31.8648 16.5998 31.9185 16.5771 31.9582 16.5371C31.9979 16.4971 32.0203 16.4429 32.0205 16.3863V15.4069C32.0203 15.3503 31.9979 15.2961 31.9582 15.2561C31.9185 15.216 31.8648 15.1934 31.8086 15.1931H31.7744Z" fill="#CAD4FF"/>
</svg>
