<svg width="114" height="30" viewBox="0 0 114 30" fill="none" xmlns="http://www.w3.org/2000/svg">
<path d="M19.5496 1.45574C18.139 0.486031 16.2983 0 14.0275 0H5.23633C4.5402 0 4.1556 0.348148 4.08255 1.04377L0.51121 23.4615C0.474094 23.6817 0.52918 23.883 0.675963 24.0661C0.821907 24.2495 1.00547 24.3407 1.22531 24.3407H5.40108C6.13349 24.3407 6.53605 23.9934 6.60995 23.2969L7.5988 17.2533C7.63491 16.9604 7.76372 16.7222 7.98356 16.5388C8.20323 16.3558 8.47799 16.236 8.80767 16.1811C9.13734 16.1267 9.44821 16.0993 9.74177 16.0993C10.0345 16.0993 10.3823 16.1178 10.7859 16.1542C11.1884 16.1909 11.4451 16.2087 11.5551 16.2087C14.705 16.2087 17.1775 15.3211 18.9727 13.544C20.767 11.7677 21.6652 9.30463 21.6652 6.15382C21.6652 3.99288 20.9595 2.42697 19.5496 1.45574ZM15.0167 8.18696C14.833 9.46921 14.3574 10.3113 13.5882 10.7144C12.8189 11.1179 11.72 11.3186 10.2916 11.3186L8.47833 11.3735L9.4126 5.4943C9.48549 5.09174 9.72347 4.89021 10.1267 4.89021H11.171C12.6355 4.89021 13.6984 5.10131 14.3577 5.52185C15.0167 5.94339 15.2366 6.83198 15.0167 8.18696Z" fill="#003087"/>
<path d="M112.325 0H108.259C107.855 0 107.617 0.201534 107.545 0.604601L103.973 23.4617L103.918 23.5715C103.918 23.7556 103.991 23.9287 104.138 24.0937C104.284 24.2582 104.468 24.3407 104.687 24.3407H108.314C109.009 24.3407 109.394 23.9934 109.468 23.2969L113.039 0.823767V0.769186C113.039 0.256452 112.8 0 112.325 0Z" fill="#009CDE"/>
<path d="M63.2036 8.84585C63.2036 8.66312 63.1299 8.4888 62.9843 8.32421C62.8374 8.15946 62.6723 8.07666 62.4897 8.07666H58.2589C57.8551 8.07666 57.5256 8.26073 57.2698 8.62601L51.4457 17.1979L49.0281 8.95602C48.8442 8.37039 48.4417 8.07666 47.8194 8.07666H43.6979C43.5143 8.07666 43.3496 8.15929 43.204 8.32421C43.057 8.4888 42.9841 8.66329 42.9841 8.84585C42.9841 8.91974 43.3414 9.99979 44.0555 12.0877C44.7696 14.1761 45.5387 16.4289 46.363 18.8466C47.1873 21.2638 47.6174 22.5466 47.6542 22.6922C44.6503 26.7951 43.1489 28.993 43.1489 29.2855C43.1489 29.7622 43.3867 30 43.8632 30H48.094C48.4967 30 48.8262 29.8172 49.083 29.4508L63.0941 9.23044C63.167 9.15772 63.2036 9.03008 63.2036 8.84585Z" fill="#003087"/>
<path d="M102.599 8.07661H98.4234C97.9103 8.07661 97.5998 8.68121 97.4899 9.89008C96.5365 8.42543 94.7976 7.69202 92.2697 7.69202C89.6323 7.69202 87.3883 8.68121 85.539 10.6593C83.6889 12.6373 82.7644 14.9638 82.7644 17.6375C82.7644 19.7991 83.396 21.5206 84.6597 22.8022C85.9234 24.0851 87.6175 24.7253 89.7427 24.7253C90.8046 24.7253 91.8851 24.5051 92.984 24.0659C94.083 23.6264 94.9431 23.0406 95.5668 22.3077C95.5668 22.3445 95.5295 22.5091 95.4568 22.802C95.3829 23.0955 95.3468 23.3157 95.3468 23.4613C95.3468 24.0481 95.5843 24.3404 96.0612 24.3404H99.8528C100.548 24.3404 100.951 23.993 101.061 23.2966L103.314 8.9558C103.35 8.73596 103.295 8.53476 103.149 8.35137C103.002 8.16848 102.819 8.07661 102.599 8.07661ZM95.4293 18.9011C94.4952 19.8169 93.3689 20.2746 92.0502 20.2746C90.9875 20.2746 90.1274 19.982 89.4677 19.3956C88.8082 18.8104 88.4786 18.0045 88.4786 16.978C88.4786 15.6235 88.9364 14.478 89.8523 13.544C90.7671 12.6099 91.9036 12.1429 93.2591 12.1429C94.2837 12.1429 95.1355 12.4452 95.8139 13.0493C96.491 13.6539 96.8306 14.4874 96.8306 15.5498C96.8304 16.8683 96.3632 17.9858 95.4293 18.9011Z" fill="#009CDE"/>
<path d="M40.1818 8.07661H36.0058C35.4923 8.07661 35.1816 8.68121 35.0716 9.89008C34.0825 8.42543 32.3425 7.69202 29.8517 7.69202C27.2143 7.69202 24.9704 8.68121 23.1208 10.6593C21.2707 12.6373 20.3462 14.9638 20.3462 17.6375C20.3462 19.7991 20.9782 21.5206 22.2419 22.8022C23.5057 24.0851 25.1995 24.7253 27.3243 24.7253C28.3494 24.7253 29.4123 24.5051 30.511 24.0659C31.6099 23.6264 32.4891 23.0406 33.1484 22.3077C33.0015 22.7472 32.9286 23.132 32.9286 23.4613C32.9286 24.0481 33.1666 24.3404 33.6429 24.3404H37.434C38.1295 24.3404 38.5329 23.993 38.6429 23.2966L40.8955 8.9558C40.9316 8.73596 40.8769 8.53476 40.7308 8.35137C40.5842 8.16848 40.4011 8.07661 40.1818 8.07661ZM33.0112 18.9283C32.0769 19.8268 30.9317 20.2746 29.5773 20.2746C28.5143 20.2746 27.6627 19.982 27.0222 19.3956C26.3808 18.8104 26.0605 18.0045 26.0605 16.978C26.0605 15.6235 26.5182 14.478 27.4343 13.544C28.3494 12.6099 29.4851 12.1429 30.8409 12.1429C31.866 12.1429 32.7177 12.4452 33.396 13.0493C34.0731 13.6539 34.4124 14.4874 34.4124 15.5498C34.4124 16.9051 33.9453 18.0319 33.0112 18.9283Z" fill="#003087"/>
<path d="M81.9673 1.45574C80.5569 0.486031 78.7166 0 76.4455 0H67.7092C66.9761 0 66.573 0.348148 66.5003 1.04377L62.929 23.4615C62.8918 23.6817 62.9468 23.883 63.0937 24.0661C63.2391 24.2495 63.4232 24.3407 63.6431 24.3407H68.1483C68.5878 24.3407 68.8807 24.1029 69.0275 23.6266L70.0167 17.2533C70.053 16.9604 70.1813 16.7222 70.4013 16.5388C70.6211 16.3558 70.8956 16.236 71.2256 16.1811C71.5551 16.1267 71.8659 16.0993 72.1597 16.0993C72.4524 16.0993 72.8002 16.1178 73.2033 16.1542C73.6062 16.1909 73.8633 16.2087 73.9725 16.2087C77.1229 16.2087 79.5951 15.3211 81.3902 13.544C83.1851 11.7677 84.0826 9.30463 84.0826 6.15382C84.0827 3.99288 83.3772 2.42697 81.9673 1.45574ZM76.3355 10.4945C75.5295 11.0439 74.3206 11.3184 72.7092 11.3184L70.9508 11.3734L71.8851 5.49414C71.9576 5.09157 72.1956 4.89004 72.5992 4.89004H73.5879C74.3935 4.89004 75.0346 4.92665 75.5115 4.99971C75.987 5.07344 76.4455 5.30184 76.885 5.68643C77.3248 6.07103 77.5443 6.62994 77.5443 7.36235C77.5443 8.90106 77.1409 9.94466 76.3355 10.4945Z" fill="#009CDE"/>
</svg>
