<svg width="77" height="51" viewBox="0 0 77 51" fill="none" xmlns="http://www.w3.org/2000/svg">
<path d="M72.3514 50.5H4.4087C2.2473 50.4798 0.5 48.7224 0.5 46.5509V3.9491C0.5 1.7675 2.2675 0 4.4491 0H72.311C74.4926 0 76.2601 1.7675 76.2601 3.9491V46.561C76.25 48.7224 74.5128 50.4798 72.3514 50.5Z" fill="#EF809F"/>
<path d="M23.2351 45.1369C24.9521 45.1369 26.2651 43.9855 26.2651 42.2988C26.2651 40.7333 25.1541 40.0566 23.7906 39.6526C22.922 39.4001 22.3766 39.2082 22.3766 38.5921C22.3766 38.077 22.7503 37.673 23.3462 37.673C23.8512 37.673 24.2249 37.9659 24.4976 38.4103L25.9217 37.5114C25.4773 36.5317 24.4774 36.0267 23.3967 36.0267C21.6797 36.0267 20.5889 37.2589 20.5889 38.6931C20.5889 39.8344 21.2757 40.7131 22.9624 41.208C23.8815 41.4706 24.4673 41.6524 24.4673 42.3796C24.4673 43.0664 23.9724 43.4906 23.2553 43.4906C22.4877 43.4906 21.9019 42.9957 21.5484 42.5412L20.3667 43.7229C21.003 44.5915 22.0332 45.1369 23.2351 45.1369ZM30.1738 45.1369C28.3558 45.1369 26.8812 43.6825 26.8812 41.915C26.8812 40.1475 28.3558 38.6931 30.1738 38.6931C31.9918 38.6931 33.4664 40.1475 33.4664 41.915C33.4664 43.6825 31.9918 45.1369 30.1738 45.1369ZM30.1738 43.5209C31.0525 43.5209 31.7494 42.824 31.7494 41.915C31.7494 41.006 31.0525 40.3091 30.1738 40.3091C29.285 40.3091 28.5982 41.006 28.5982 41.915C28.5982 42.8341 29.2951 43.5209 30.1738 43.5209ZM37.7185 37.7538V36.1378H37.466C35.3753 36.1378 34.3451 37.5316 34.3451 39.1678V44.9753H36.0621V42.4301C36.0621 41.5817 36.7186 40.9757 37.668 40.9555V39.3193C36.9913 39.3193 36.4459 39.5213 36.0621 39.9253V39.2688C36.0621 38.1982 36.759 37.7134 37.7185 37.7538ZM41.4656 45.1369C39.6476 45.1369 38.173 43.6825 38.173 41.915C38.173 40.1475 39.6476 38.6931 41.4656 38.6931C43.2836 38.6931 44.7582 40.1475 44.7582 41.915C44.7582 43.6825 43.2836 45.1369 41.4656 45.1369ZM41.4656 43.5209C42.3544 43.5209 43.0412 42.824 43.0412 41.915C43.0412 41.006 42.3443 40.3091 41.4656 40.3091C40.5869 40.3091 39.89 41.006 39.89 41.915C39.89 42.8341 40.5869 43.5209 41.4656 43.5209ZM47.3539 39.5617V38.8648H45.6874V44.9753H47.4044V42.1877C47.4044 41.1777 48.0003 40.6121 49.0305 40.6121V38.7739C48.2528 38.7436 47.6973 39.0062 47.3539 39.5617ZM51.7373 41.8544V40.3596C52.1211 40.7636 52.6564 40.9656 53.3432 40.9656V39.3395C52.414 39.3193 51.7373 38.6931 51.7373 37.8649V36.9054H50.0203V41.9554C50.0203 43.5916 51.0404 44.9854 53.1412 44.9854H53.3937V43.3694C52.4342 43.3997 51.7373 42.925 51.7373 41.8544ZM55.444 45.0763C56.0702 45.0763 56.5954 44.5612 56.5954 43.9249C56.5954 43.2987 56.0803 42.7735 55.444 42.7735C54.8077 42.7735 54.2926 43.2886 54.2926 43.9249C54.2926 44.5612 54.8077 45.0763 55.444 45.0763Z" fill="white"/>
<path d="M35.6582 23.4724C36.1935 23.9976 36.2036 24.8561 35.6784 25.3914L35.5774 25.5025C35.0522 26.0378 34.1937 26.0479 33.6584 25.5227L30.6284 22.523C29.7901 21.6847 29.679 20.6545 30.2042 20.1091L30.3052 19.998C30.7395 19.5435 31.4566 19.5031 31.9515 19.8869C32.1838 20.0687 32.5272 20.0283 32.7191 19.796C32.9009 19.5637 32.8605 19.2203 32.6282 19.0284C31.6889 18.2911 30.3456 18.382 29.5174 19.2304L29.4164 19.3415C28.4367 20.3515 28.6286 22.0584 29.8507 23.2805L32.8908 26.3105C33.8705 27.2498 35.4158 27.2296 36.3652 26.26L36.4763 26.1489C37.4055 25.1793 37.3853 23.6441 36.4258 22.6947C36.2137 22.4826 35.8703 22.4826 35.6582 22.7048C35.436 22.9169 35.436 23.2603 35.6582 23.4724ZM33.8402 7.20135L35.0825 17.4023C35.1128 17.6952 35.3855 17.9174 35.6885 17.877C35.9814 17.8467 36.2036 17.574 36.1632 17.271L34.9209 7.02964L34.9108 6.96904C34.6987 6.12065 35.2239 5.17124 35.9309 5.01974C36.3248 4.93894 36.7389 5.00965 37.0722 5.23185C37.4055 5.45405 37.6378 5.79745 37.7186 6.19135L39.88 15.4227C39.9507 15.7156 40.2436 15.8974 40.5365 15.8267C40.8294 15.756 41.0112 15.4631 40.9405 15.1702L38.7892 5.96914C38.6579 5.30254 38.2539 4.70665 37.6782 4.32285C37.1025 3.93905 36.3854 3.80774 35.7087 3.94914C34.3755 4.23194 33.5069 5.78735 33.8402 7.20135Z" fill="white"/>
<path d="M45.2328 19.1799L47.6871 6.95894C47.9699 5.64594 47.1922 4.32284 45.8893 3.93904C44.4349 3.57544 42.9704 4.42384 42.5967 5.85804L39.8798 15.1601C39.799 15.453 39.9606 15.756 40.2535 15.8368C40.5464 15.9176 40.8494 15.756 40.9302 15.4631L43.6471 6.15094C43.8794 5.29244 44.748 4.77734 45.5964 4.98944C46.3236 5.21164 46.7781 5.96914 46.6165 6.73674L44.1622 18.9678C44.1016 19.2607 44.2935 19.5536 44.5864 19.6142C44.8894 19.6647 45.1823 19.4728 45.2328 19.1799ZM39.0617 30.9565C35.1732 30.9565 31.9311 28.1083 31.9311 24.0582C31.9311 23.7552 31.6887 23.5128 31.3857 23.5128C31.0827 23.5128 30.8403 23.7552 30.8403 24.0582C30.8403 28.7446 34.6076 32.0473 39.0617 32.0473C39.3647 32.0473 39.6071 31.8049 39.6071 31.5019C39.6071 31.1989 39.3647 30.9565 39.0617 30.9565ZM37.1427 21.4322C37.0619 21.7352 36.87 22.0079 36.6074 22.1796L36.4862 22.2503C35.86 22.6745 35.0116 22.5129 34.5874 21.8867L32.2038 18.3416C31.5574 17.3518 31.6382 16.3216 32.2644 15.8873L32.3755 15.8065C33.1835 15.3419 33.8602 15.6954 34.5571 16.7155L36.5468 19.6849C36.7185 19.9374 37.0518 19.998 37.3043 19.8364C37.5568 19.6748 37.6174 19.3314 37.4558 19.0789L35.4661 16.1095C34.4763 14.6753 33.2643 14.039 31.7998 14.8874L31.6483 14.9884C30.4767 15.7863 30.3353 17.5033 31.2948 18.9476L33.6784 22.5028C34.446 23.6239 35.961 23.9168 37.0821 23.1593L37.2033 23.0785C37.678 22.7553 38.0214 22.2705 38.183 21.715C38.2638 21.4221 38.0921 21.1292 37.7992 21.0484C37.5164 20.9676 37.2235 21.1393 37.1427 21.4322Z" fill="white"/>
<path d="M40.7485 23.23C39.6173 23.8663 38.9103 25.048 38.8295 26.8559C38.8093 27.1589 39.0416 27.4114 39.3446 27.4316C39.6476 27.4417 39.9001 27.2195 39.9203 26.9165C40.0011 25.2803 40.6374 24.4016 41.6575 24.0178C42.2029 23.8158 42.7988 23.7754 43.324 23.8259L43.4553 23.8461C44.1522 23.9774 44.3744 22.9371 43.6775 22.7755L39.486 21.8362C37.5266 21.3009 37.2236 20.5737 37.5872 19.3617C37.7488 18.8365 38.0619 18.5638 38.5568 18.4527C38.88 18.382 39.2335 18.3921 39.5769 18.4527C39.6779 18.4729 39.7486 18.483 39.7789 18.4931L46.1419 19.9778L46.2631 20.0182C46.3641 20.0586 46.4752 20.1394 46.5863 20.2505C47.0105 20.705 47.2529 21.5635 47.1317 22.9775C46.7176 27.9265 44.4148 30.9969 38.9406 30.9464C38.6376 30.9464 38.3952 31.1888 38.3952 31.4817C38.3952 31.7847 38.6376 32.0271 38.9305 32.0271C45.0713 32.0776 47.7579 28.5123 48.2124 23.0583C48.3538 21.3615 48.0407 20.2 47.3842 19.5031C47.0206 19.1193 46.6368 18.9375 46.3439 18.8971L40.0516 17.4326C40.0112 17.4225 39.9102 17.3922 39.7688 17.372C39.2941 17.2912 38.7992 17.2811 38.3144 17.3821C37.466 17.574 36.8196 18.1093 36.5469 19.0385C36.0217 20.7858 36.5772 22.1594 39.2234 22.8765L40.7485 23.23Z" fill="white"/>
</svg>
