<svg width="96" height="96" viewBox="0 0 96 96" fill="none" xmlns="http://www.w3.org/2000/svg">
<circle cx="48" cy="48" r="48" fill="#41D195" fill-opacity="0.12"/>
<rect x="31.5" y="34" width="30" height="27" fill="white"/>
<path d="M47.1433 25.1431C34.549 25.1431 24.2861 35.4059 24.2861 48.0002C24.2861 60.5945 34.549 70.8573 47.1433 70.8573C59.7376 70.8573 70.0004 60.5945 70.0004 48.0002C70.0004 35.4059 59.7376 25.1431 47.1433 25.1431ZM58.069 42.7431L45.109 55.7031C44.789 56.0231 44.3547 56.2059 43.8976 56.2059C43.4404 56.2059 43.0061 56.0231 42.6861 55.7031L36.2176 49.2345C35.5547 48.5716 35.5547 47.4745 36.2176 46.8116C36.8804 46.1488 37.9776 46.1488 38.6404 46.8116L43.8976 52.0688L55.6461 40.3202C56.309 39.6574 57.4061 39.6574 58.069 40.3202C58.7318 40.9831 58.7318 42.0574 58.069 42.7431Z" fill="#41D195"/>
</svg>
