<svg xmlns="http://www.w3.org/2000/svg" width="122" height="35" viewBox="0 0 122 35" fill="none">
  <path d="M12.1958 34.4404L0.450195 0.784779H7.13615L15.6743 26.6251L24.2576 0.784779H30.9436L19.2432 34.4404H12.1958Z" fill="white"/>
  <path d="M43.6135 34.9826C41.0837 34.9826 38.8701 34.4103 36.9727 33.2659C35.0754 32.1214 33.5996 30.5855 32.5455 28.658C31.4914 26.7004 30.9644 24.5169 30.9644 22.1076C30.9644 19.6681 31.4914 17.4846 32.5455 15.5571C33.6297 13.6296 35.0904 12.1087 36.9276 10.9944C38.7647 9.88009 40.8428 9.32293 43.1618 9.32293C45.6916 9.32293 47.8449 9.88009 49.6218 10.9944C51.3987 12.0786 52.754 13.5242 53.6876 15.3313C54.6514 17.1383 55.1332 19.141 55.1332 21.3396C55.1332 21.7913 55.1031 22.2431 55.0429 22.6948C55.0128 23.1165 54.9375 23.4929 54.817 23.8242H37.1083C37.289 25.6614 37.9816 27.122 39.1863 28.2062C40.391 29.2603 41.8818 29.7874 43.6587 29.7874C45.0139 29.7874 46.1584 29.5013 47.092 28.929C48.0558 28.3568 48.8087 27.5888 49.3508 26.6251L54.1394 28.9742C53.3865 30.721 52.0613 32.1666 50.1639 33.3111C48.2967 34.4254 46.1132 34.9826 43.6135 34.9826ZM43.1618 14.2019C41.686 14.2019 40.4061 14.6536 39.3218 15.5571C38.2678 16.4305 37.5751 17.6804 37.2438 19.3067H48.8087C48.6882 17.8008 48.1009 16.5811 47.0468 15.6475C46.0229 14.6837 44.7278 14.2019 43.1618 14.2019Z" fill="white"/>
  <path d="M59.6194 34.4404V0.242676H65.5373V34.4404H59.6194Z" fill="white"/>
  <path d="M83.0181 34.9826C80.6087 34.9826 78.4102 34.4254 76.4225 33.3111C74.4649 32.1967 72.8988 30.6758 71.7242 28.7483C70.5798 26.8209 70.0076 24.6223 70.0076 22.1527C70.0076 19.6832 70.5798 17.4846 71.7242 15.5571C72.8988 13.6296 74.4649 12.1087 76.4225 10.9944C78.3801 9.88009 80.5786 9.32293 83.0181 9.32293C85.3973 9.32293 87.5657 9.88009 89.5233 10.9944C91.4809 12.1087 93.047 13.6296 94.2216 15.5571C95.3961 17.4846 95.9834 19.6832 95.9834 22.1527C95.9834 24.6223 95.3961 26.8359 94.2216 28.7935C93.047 30.721 91.4809 32.2419 89.5233 33.3562C87.5657 34.4404 85.3973 34.9826 83.0181 34.9826ZM83.0181 29.5615C84.3131 29.5615 85.4726 29.2453 86.4966 28.6128C87.5206 27.9804 88.3187 27.107 88.8909 25.9926C89.4932 24.8783 89.7944 23.5984 89.7944 22.1527C89.7944 20.7372 89.4932 19.4723 88.8909 18.358C88.3187 17.2437 87.5206 16.3703 86.4966 15.7378C85.4726 15.0753 84.3131 14.744 83.0181 14.744C81.6628 14.744 80.4732 15.0753 79.4492 15.7378C78.4253 16.3703 77.6121 17.2437 77.0098 18.358C76.4375 19.4723 76.1514 20.7372 76.1514 22.1527C76.1514 23.5984 76.4375 24.8783 77.0098 25.9926C77.6121 27.107 78.4253 27.9804 79.4492 28.6128C80.4732 29.2453 81.6628 29.5615 83.0181 29.5615Z" fill="white"/>
  <path d="M97.3754 34.4404L105.959 22.1076L97.3302 9.86503H104.287L109.437 17.4997L114.632 9.86503H121.544L112.961 22.1076L121.499 34.4404H114.587L109.437 26.7606L104.332 34.4404H97.3754Z" fill="white"/>
</svg>