<svg width="111" height="33" viewBox="0 0 111 33" fill="none" xmlns="http://www.w3.org/2000/svg">
<path d="M14.0943 1.1988V7.85765L9.02032 2.83543C8.48135 2.3061 8.15801 2.30791 7.55452 2.83543L5.6377 4.24486L14.5453 13.1524C15.0785 13.6062 15.3742 13.8477 15.7856 13.829C16.197 13.8477 16.4927 13.6062 17.0259 13.1524L25.9335 4.24486L24.0166 2.83543C23.4131 2.30791 23.0898 2.3061 22.5508 2.83543L17.3641 7.9692V1.1988C17.3661 0.807181 17.3082 0.692311 16.6949 0.691412H14.7635C14.1502 0.692311 14.0924 0.807181 14.0943 1.1988Z" fill="white"/>
<path d="M31.0106 14.7134H24.3517L29.3739 9.63946C29.9033 9.10049 29.9015 8.77715 29.3739 8.17366L27.9645 6.25684L19.0569 15.1644C18.6032 15.6976 18.3617 15.9933 18.3804 16.4047C18.3617 16.8161 18.6032 17.1118 19.0569 17.645L27.9645 26.5526L29.3739 24.6358C29.9015 24.0323 29.9033 23.709 29.3739 23.17L24.2402 17.9833H31.0106C31.4022 17.9852 31.5171 17.9273 31.518 17.314V15.3827C31.5171 14.7694 31.4022 14.7115 31.0106 14.7134Z" fill="white"/>
<path d="M17.4768 31.6283V24.9694L22.5508 29.9916C23.0898 30.521 23.4131 30.5191 24.0166 29.9916L25.9335 28.5822L17.0259 19.6746C16.4927 19.2209 16.197 18.9793 15.7856 18.9981C15.3742 18.9793 15.0785 19.2209 14.5453 19.6746L5.6377 28.5822L7.55452 29.9916C8.15801 30.5191 8.48135 30.521 9.02032 29.9916L14.207 24.8579V31.6283C14.2051 32.0199 14.2629 32.1347 14.8762 32.1356H16.8076C17.4209 32.1347 17.4788 32.0199 17.4768 31.6283Z" fill="white"/>
<path d="M0.507394 18.096L7.16625 18.096L2.14404 23.17C1.61471 23.709 1.61652 24.0323 2.14404 24.6358L3.55347 26.5526L12.4611 17.645C12.9148 17.1118 13.1563 16.8161 13.1376 16.4047C13.1563 15.9933 12.9148 15.6976 12.4611 15.1644L3.55347 6.25684L2.14404 8.17366C1.61652 8.77715 1.61471 9.10049 2.14404 9.63946L7.27783 14.8262L0.507395 14.8262C0.115775 14.8242 0.000904901 14.8821 5.60144e-06 15.4954L5.33015e-06 17.4268C0.000904469 18.0401 0.115774 18.0979 0.507394 18.096Z" fill="white"/>
<path d="M46.1233 26.465L39.1548 6.49741H43.1215L48.1871 21.8282L53.2795 6.49741H57.2462L50.3045 26.465H46.1233Z" fill="white"/>
<path d="M64.7632 26.7866C63.2623 26.7866 61.949 26.4471 60.8233 25.7682C59.6976 25.0892 58.822 24.1779 58.1967 23.0343C57.5713 21.8729 57.2586 20.5775 57.2586 19.148C57.2586 17.7007 57.5713 16.4053 58.1967 15.2617C58.8399 14.1182 59.7065 13.2158 60.7965 12.5547C61.8864 11.8936 63.1193 11.563 64.4952 11.563C65.9961 11.563 67.2737 11.8936 68.3279 12.5547C69.3821 13.1979 70.1862 14.0556 70.7401 15.1277C71.3118 16.1998 71.5977 17.388 71.5977 18.6924C71.5977 18.9604 71.5799 19.2284 71.5441 19.4964C71.5263 19.7466 71.4816 19.97 71.4101 20.1665H60.9037C61.0109 21.2565 61.4219 22.1231 62.1366 22.7663C62.8513 23.3917 63.7358 23.7044 64.79 23.7044C65.5941 23.7044 66.273 23.5346 66.827 23.1951C67.3987 22.8557 67.8454 22.4 68.1671 21.8282L71.0081 23.2219C70.5614 24.2583 69.7752 25.116 68.6495 25.795C67.5417 26.4561 66.2462 26.7866 64.7632 26.7866ZM64.4952 14.4576C63.6196 14.4576 62.8602 14.7257 62.217 15.2617C61.5916 15.7799 61.1806 16.5214 60.9841 17.4863H67.8454C67.774 16.5929 67.4255 15.8692 66.8002 15.3153C66.1926 14.7435 65.4243 14.4576 64.4952 14.4576Z" fill="white"/>
<path d="M74.2593 26.465V6.17578H77.7704V26.465H74.2593Z" fill="white"/>
<path d="M88.1416 26.7866C86.7121 26.7866 85.4078 26.4561 84.2285 25.795C83.067 25.1338 82.1379 24.2315 81.441 23.0879C80.762 21.9444 80.4226 20.64 80.4226 19.1748C80.4226 17.7096 80.762 16.4053 81.441 15.2617C82.1379 14.1182 83.067 13.2158 84.2285 12.5547C85.3899 11.8936 86.6943 11.563 88.1416 11.563C89.5532 11.563 90.8397 11.8936 92.0011 12.5547C93.1625 13.2158 94.0917 14.1182 94.7885 15.2617C95.4854 16.4053 95.8338 17.7096 95.8338 19.1748C95.8338 20.64 95.4854 21.9533 94.7885 23.1147C94.0917 24.2583 93.1625 25.1606 92.0011 25.8218C90.8397 26.465 89.5532 26.7866 88.1416 26.7866ZM88.1416 23.5704C88.9099 23.5704 89.5978 23.3828 90.2053 23.0075C90.8129 22.6323 91.2864 22.1141 91.6259 21.453C91.9832 20.7919 92.1619 20.0325 92.1619 19.1748C92.1619 18.335 91.9832 17.5846 91.6259 16.9234C91.2864 16.2623 90.8129 15.7441 90.2053 15.3689C89.5978 14.9758 88.9099 14.7793 88.1416 14.7793C87.3375 14.7793 86.6317 14.9758 86.0242 15.3689C85.4167 15.7441 84.9343 16.2623 84.5769 16.9234C84.2374 17.5846 84.0677 18.335 84.0677 19.1748C84.0677 20.0325 84.2374 20.7919 84.5769 21.453C84.9343 22.1141 85.4167 22.6323 86.0242 23.0075C86.6317 23.3828 87.3375 23.5704 88.1416 23.5704Z" fill="white"/>
<path d="M96.6596 26.465L101.752 19.148L96.6328 11.8846H100.76L103.816 16.4142L106.898 11.8846H110.999L105.906 19.148L110.972 26.465H106.871L103.816 21.9086L100.787 26.465H96.6596Z" fill="white"/>
</svg>
