<svg xmlns="http://www.w3.org/2000/svg" width="54" height="53" viewBox="0 0 54 53" fill="none">
  <path d="M23.7558 0.85522V12.0788L15.2035 3.61378C14.295 2.72158 13.75 2.72464 12.7328 3.61378L9.50201 5.98939L24.5159 21.0032C25.4146 21.768 25.913 22.1751 26.6064 22.1435C27.2998 22.1751 27.7982 21.768 28.697 21.0032L43.7108 5.98939L40.48 3.61378C39.4628 2.72464 38.9178 2.72158 38.0093 3.61378L29.2671 12.2668V0.85522C29.2704 0.195139 29.1728 0.00152463 28.1391 8.98566e-06H24.8838C23.85 0.00152463 23.7525 0.195139 23.7558 0.85522Z" fill="white"/>
  <path d="M52.2678 23.6336H41.0442L49.5092 15.0813C50.4014 14.1729 50.3984 13.6279 49.5092 12.6107L47.1336 9.37988L32.1198 24.3937C31.355 25.2925 30.9479 25.7909 30.9795 26.4843C30.9479 27.1777 31.355 27.6761 32.1198 28.5748L47.1336 43.5887L49.5092 40.3578C50.3984 39.3406 50.4014 38.7957 49.5092 37.8872L40.8562 29.1449H52.2678C52.9279 29.1482 53.1215 29.0507 53.123 28.017V24.7616C53.1215 23.7279 52.9279 23.6303 52.2678 23.6336Z" fill="white"/>
  <path d="M29.457 52.1445V40.9209L38.0093 49.386C38.9178 50.2782 39.4628 50.2751 40.48 49.386L43.7108 47.0103L28.697 31.9965C27.7982 31.2317 27.2998 30.8246 26.6064 30.8562C25.913 30.8246 25.4146 31.2317 24.5159 31.9965L9.50201 47.0103L12.7328 49.386C13.75 50.2751 14.295 50.2782 15.2035 49.386L23.9457 40.7329V52.1445C23.9425 52.8046 24.04 52.9982 25.0737 52.9997H28.3291C29.3628 52.9982 29.4603 52.8046 29.457 52.1445Z" fill="white"/>
  <path d="M0.855281 29.3349L12.0789 29.335L3.61388 37.8872C2.72167 38.7957 2.72473 39.3406 3.61388 40.3578L5.98949 43.5887L21.0033 28.5748C21.7681 27.6761 22.1752 27.1777 22.1436 26.4843C22.1752 25.7909 21.7681 25.2925 21.0033 24.3937L5.98948 9.37988L3.61387 12.6107C2.72473 13.6279 2.72167 14.1729 3.61387 15.0813L12.2669 23.8236L0.855281 23.8236C0.195201 23.8204 0.00158626 23.9179 7.04765e-05 24.9516L7.00192e-05 28.207C0.00158553 29.2407 0.1952 29.3382 0.855281 29.3349Z" fill="white"/>
</svg>