<svg width="311" height="122" viewBox="0 0 311 122" fill="none" xmlns="http://www.w3.org/2000/svg">
<g clip-path="url(#clip0_4907_87247)">
<rect width="311" height="122" rx="16" fill="url(#paint0_radial_4907_87247)"/>
<path opacity="0.5" d="M288.763 104.038C289.977 103.983 290.862 104.662 292.78 106.295L323.844 137.374L317.537 142.015L317.521 142.027L317.504 142.041C316.446 142.966 315.75 143.319 315.157 143.319C314.577 143.32 313.939 142.981 313.002 142.061L295.069 124.301L294.218 123.457V148.208C294.219 148.552 294.207 148.788 294.168 148.961C294.132 149.12 294.082 149.192 294.025 149.241C293.958 149.299 293.826 149.37 293.546 149.422C293.267 149.474 292.883 149.499 292.352 149.5H285.526C284.995 149.499 284.61 149.474 284.331 149.422C284.052 149.37 283.92 149.299 283.853 149.241C283.796 149.192 283.746 149.12 283.71 148.961C283.671 148.788 283.658 148.552 283.66 148.208V123.062L282.808 123.906L264.477 142.061C263.54 142.981 262.902 143.32 262.322 143.319C261.73 143.319 261.033 142.966 259.975 142.041L259.959 142.027L259.941 142.015L253.634 137.374L284.691 106.301C286.615 104.664 287.501 103.983 288.717 104.038L288.739 104.039L288.763 104.038ZM276.688 90.4561C278.322 92.3762 279.002 93.262 278.946 94.4775L278.945 94.5L278.946 94.5225C279.002 95.7378 278.321 96.6233 276.688 98.543L245.621 129.615L240.982 123.308L240.971 123.291L240.956 123.274C240.031 122.216 239.679 121.52 239.679 120.927C239.678 120.347 240.016 119.709 240.937 118.771L240.936 118.771L258.69 100.832L259.533 99.9805H234.791C234.448 99.9822 234.212 99.9694 234.039 99.9307C233.88 99.8952 233.808 99.845 233.759 99.7881C233.701 99.7207 233.63 99.5883 233.578 99.3086C233.539 99.0992 233.515 98.8306 233.505 98.4854L233.5 98.1133V91.2852L233.505 90.9141C233.515 90.5686 233.539 90.3003 233.578 90.0908C233.63 89.8112 233.701 89.6788 233.759 89.6113C233.808 89.5543 233.88 89.5043 234.039 89.4688C234.212 89.43 234.448 89.4173 234.791 89.4189H259.928L259.085 88.5664L240.936 70.2275C240.016 69.2907 239.678 68.6533 239.679 68.0732C239.679 67.4803 240.031 66.7835 240.956 65.7256L240.971 65.709L240.982 65.6924L245.621 59.3838L276.688 90.4561ZM336.238 65.6924L336.251 65.709L336.265 65.7256C337.189 66.7836 337.541 67.4803 337.542 68.0732C337.543 68.6533 337.205 69.2907 336.285 70.2275L318.53 88.168L317.688 89.0195H342.43C342.773 89.0178 343.009 89.0307 343.182 89.0693C343.34 89.1048 343.413 89.155 343.462 89.2119C343.52 89.2793 343.591 89.4117 343.643 89.6914C343.694 89.9707 343.72 90.3548 343.721 90.8867V97.7148L343.716 98.0859C343.706 98.4314 343.681 98.6997 343.643 98.9092C343.591 99.189 343.52 99.3212 343.462 99.3887C343.413 99.4457 343.341 99.4957 343.182 99.5312C343.009 99.57 342.773 99.5828 342.43 99.5811H317.293L318.136 100.434L336.284 118.771V118.771C337.205 119.709 337.543 120.346 337.542 120.927C337.541 121.52 337.189 122.216 336.265 123.274L336.251 123.291L336.238 123.308L331.599 129.615L300.536 98.5479C298.9 96.6249 298.219 95.7388 298.274 94.5225L298.275 94.5L298.274 94.4775C298.219 93.2608 298.9 92.3743 300.537 90.4502L331.599 59.3838L336.238 65.6924ZM283.262 40.792C283.26 40.4482 283.273 40.2122 283.312 40.0391C283.347 39.8803 283.397 39.8076 283.454 39.7588C283.522 39.7011 283.654 39.6301 283.934 39.5781C284.143 39.5393 284.411 39.5149 284.756 39.5049L285.128 39.5H291.953L292.324 39.5049C292.67 39.5149 292.938 39.5392 293.147 39.5781C293.427 39.6301 293.56 39.7011 293.627 39.7588C293.684 39.8076 293.734 39.8803 293.77 40.0391C293.808 40.2122 293.821 40.4482 293.819 40.792V65.9375L294.671 65.0938L313.002 46.9385L313.003 46.9395C313.94 46.0185 314.577 45.6801 315.157 45.6807C315.75 45.6814 316.446 46.0338 317.504 46.959L317.521 46.9727L317.537 46.9854L323.844 51.625L292.78 82.7041C290.862 84.3369 289.977 85.0171 288.763 84.9619L288.739 84.9609L288.717 84.9619C287.501 85.0174 286.615 84.3356 284.691 82.6982L253.634 51.625L259.941 46.9854L259.959 46.9727L259.975 46.959C261.033 46.0336 261.73 45.6813 262.322 45.6807C262.83 45.6802 263.381 45.9386 264.139 46.6201L264.477 46.9395L282.409 64.6992L283.262 65.543V40.792Z" stroke="url(#paint1_linear_4907_87247)" stroke-opacity="0.5"/>
<path d="M102.608 41.6601V50.3223L96.0073 43.7891C95.3062 43.1005 94.8855 43.1029 94.1005 43.7891L91.6069 45.6226L103.195 57.2102C103.888 57.8004 104.273 58.1146 104.808 58.0902C105.343 58.1146 105.728 57.8004 106.421 57.2102L118.009 45.6226L115.516 43.7891C114.73 43.1029 114.31 43.1005 113.609 43.7891L106.861 50.4675V41.6601C106.864 41.1506 106.789 41.0012 105.991 41H103.478C102.681 41.0012 102.605 41.1506 102.608 41.6601Z" fill="white"/>
<path d="M124.614 59.3359H115.951L122.485 52.7353C123.173 52.0342 123.171 51.6136 122.485 50.8285L120.651 48.335L109.064 59.9226C108.473 60.6162 108.159 61.0009 108.183 61.536C108.159 62.0712 108.473 62.4558 109.064 63.1495L120.651 74.7371L122.485 72.2436C123.171 71.4585 123.173 71.0379 122.485 70.3367L115.806 63.5895H124.614C125.123 63.592 125.273 63.5168 125.274 62.7189V60.2065C125.273 59.4086 125.123 59.3334 124.614 59.3359Z" fill="white"/>
<path d="M107.008 81.3387V72.6764L113.609 79.2097C114.31 79.8983 114.73 79.8959 115.516 79.2097L118.009 77.3762L106.421 65.7886C105.728 65.1984 105.343 64.8842 104.808 64.9085C104.273 64.8842 103.888 65.1984 103.195 65.7886L91.6069 77.3762L94.1005 79.2097C94.8855 79.8959 95.3061 79.8983 96.0073 79.2097L102.754 72.5313V81.3387C102.752 81.8482 102.827 81.9976 103.625 81.9988H106.138C106.935 81.9976 107.011 81.8482 107.008 81.3387Z" fill="white"/>
<path d="M84.9325 63.7362L93.5948 63.7362L87.0616 70.3367C86.373 71.0379 86.3753 71.4585 87.0616 72.2436L88.8951 74.7371L100.483 63.1495C101.073 62.4559 101.387 62.0712 101.363 61.536C101.387 61.0009 101.073 60.6162 100.483 59.9226L88.8951 48.335L87.0616 50.8285C86.3753 51.6136 86.373 52.0342 87.0616 52.7353L93.74 59.4826L84.9325 59.4825C84.4231 59.48 84.2736 59.5553 84.2725 60.3531L84.2725 62.8656C84.2736 63.6634 84.4231 63.7387 84.9325 63.7362Z" fill="white"/>
<path d="M143.753 74.4253L134.733 48.5794H139.868L146.425 68.4235L153.016 48.5794H158.151L149.165 74.4253H143.753Z" fill="white"/>
<path d="M167.881 74.8416C165.938 74.8416 164.238 74.4022 162.781 73.5233C161.324 72.6444 160.191 71.4649 159.381 69.9847C158.572 68.4813 158.167 66.8045 158.167 64.9542C158.167 63.0808 158.572 61.404 159.381 59.9238C160.214 58.4436 161.335 57.2756 162.746 56.4199C164.157 55.5641 165.753 55.1363 167.534 55.1363C169.477 55.1363 171.13 55.5641 172.495 56.4199C173.859 57.2525 174.9 58.3627 175.617 59.7504C176.357 61.1381 176.727 62.6761 176.727 64.3645C176.727 64.7114 176.704 65.0583 176.658 65.4052C176.635 65.729 176.577 66.0181 176.484 66.2726H162.885C163.024 67.6834 163.556 68.8051 164.481 69.6377C165.406 70.4472 166.551 70.852 167.915 70.852C168.956 70.852 169.835 70.6322 170.552 70.1928C171.292 69.7534 171.87 69.1636 172.287 68.4235L175.964 70.2275C175.386 71.5689 174.368 72.6791 172.911 73.558C171.477 74.4137 169.8 74.8416 167.881 74.8416ZM167.534 58.8831C166.4 58.8831 165.418 59.23 164.585 59.9238C163.775 60.5946 163.243 61.5544 162.989 62.8033H171.87C171.778 61.6469 171.327 60.7102 170.517 59.9932C169.731 59.2531 168.736 58.8831 167.534 58.8831Z" fill="white"/>
<path d="M180.172 74.4253V48.1631H184.717V74.4253H180.172Z" fill="white"/>
<path d="M198.141 74.8416C196.291 74.8416 194.603 74.4137 193.076 73.558C191.573 72.7022 190.37 71.5342 189.468 70.054C188.589 68.5738 188.15 66.8855 188.15 64.9889C188.15 63.0924 188.589 61.404 189.468 59.9238C190.37 58.4436 191.573 57.2756 193.076 56.4199C194.58 55.5641 196.268 55.1363 198.141 55.1363C199.969 55.1363 201.634 55.5641 203.137 56.4199C204.641 57.2756 205.843 58.4436 206.745 59.9238C207.647 61.404 208.098 63.0924 208.098 64.9889C208.098 66.8855 207.647 68.5854 206.745 70.0887C205.843 71.5689 204.641 72.7369 203.137 73.5927C201.634 74.4253 199.969 74.8416 198.141 74.8416ZM198.141 70.6785C199.136 70.6785 200.026 70.4357 200.813 69.95C201.599 69.4643 202.212 68.7935 202.651 67.9378C203.114 67.082 203.345 66.0991 203.345 64.9889C203.345 63.9019 203.114 62.9305 202.651 62.0748C202.212 61.219 201.599 60.5483 200.813 60.0626C200.026 59.5538 199.136 59.2994 198.141 59.2994C197.101 59.2994 196.187 59.5538 195.401 60.0626C194.614 60.5483 193.99 61.219 193.527 62.0748C193.088 62.9305 192.868 63.9019 192.868 64.9889C192.868 66.0991 193.088 67.082 193.527 67.9378C193.99 68.7935 194.614 69.4643 195.401 69.95C196.187 70.4357 197.101 70.6785 198.141 70.6785Z" fill="white"/>
<path d="M209.167 74.4253L215.759 64.9542L209.132 55.5526H214.475L218.43 61.4156L222.42 55.5526H227.728L221.136 64.9542L227.693 74.4253H222.385L218.43 68.5276L214.51 74.4253H209.167Z" fill="white"/>
</g>
<defs>
<radialGradient id="paint0_radial_4907_87247" cx="0" cy="0" r="1" gradientUnits="userSpaceOnUse" gradientTransform="translate(-90.6094 -34.9932) rotate(17.3293) scale(322.472 138.929)">
<stop stop-color="#7B847B"/>
<stop offset="0.6124" stop-color="#1C1E1C"/>
</radialGradient>
<linearGradient id="paint1_linear_4907_87247" x1="234.712" y1="20.8866" x2="299.149" y2="124.181" gradientUnits="userSpaceOnUse">
<stop offset="0.257661" stop-color="#798F80" stop-opacity="0"/>
<stop offset="0.859404" stop-color="#D0F5DB"/>
</linearGradient>
<clipPath id="clip0_4907_87247">
<rect width="311" height="122" rx="16" fill="white"/>
</clipPath>
</defs>
</svg>
