<svg width="325" height="53" viewBox="0 0 325 53" fill="none" xmlns="http://www.w3.org/2000/svg">
<path d="M23.5037 1.33594C23.5029 1.17565 23.5095 1.06705 23.5271 0.988281C23.5431 0.917171 23.5647 0.886972 23.5876 0.867188C23.616 0.842952 23.6745 0.810111 23.8035 0.786133C23.868 0.774156 23.9451 0.765822 24.0369 0.759766L24.3582 0.75H27.5437C27.7913 0.750363 27.9696 0.762261 28.0984 0.786133C28.2274 0.810095 28.2858 0.842942 28.3142 0.867188C28.3373 0.886972 28.3597 0.916791 28.3757 0.988281C28.3934 1.06705 28.399 1.17565 28.3982 1.33594V13.1064L28.825 12.6855L37.3806 4.21484L37.3816 4.21582C37.8183 3.78699 38.1111 3.63366 38.3748 3.63379C38.6449 3.63406 38.9662 3.79421 39.4597 4.22559L39.4675 4.23242L39.4763 4.23828L42.4031 6.3916L27.9226 20.8721C27.023 21.6374 26.6154 21.9513 26.0554 21.9258L26.0447 21.9248L26.033 21.9258C25.4729 21.9513 25.0649 21.6378 24.1648 20.8721L9.68433 6.3916L12.6121 4.23828L12.6208 4.23242L12.6287 4.22559C13.1222 3.79416 13.4435 3.63406 13.7136 3.63379C13.9772 3.63361 14.2704 3.78636 14.7068 4.21484L23.0779 12.501L23.5037 12.9229V1.33594Z" fill="url(#paint0_linear_4872_86950)" stroke="#41CF6E" stroke-width="0.5"/>
<path d="M48.2615 13.1122L48.2673 13.121L48.2742 13.1288C48.7056 13.6224 48.8667 13.9437 48.8669 14.2138C48.8671 14.4775 48.7129 14.7702 48.2839 15.207L39.9988 23.5781L39.5779 24.0038H51.1638C51.3241 24.0031 51.4327 24.0097 51.5115 24.0273C51.5831 24.0433 51.6137 24.0647 51.6335 24.0878C51.6578 24.1162 51.6897 24.1748 51.7136 24.3036C51.7375 24.4325 51.7494 24.6105 51.7498 24.8583V28.0439C51.7494 28.2916 51.7375 28.4698 51.7136 28.5986C51.6897 28.7272 51.6578 28.7859 51.6335 28.8144C51.6137 28.8375 51.5832 28.8599 51.5115 28.8759C51.4327 28.8935 51.3241 28.8992 51.1638 28.8984H39.3933L39.8152 29.3242L48.2839 37.8808V37.8818C48.7129 38.3185 48.8671 38.6113 48.8669 38.8749C48.8667 39.1451 48.7056 39.4663 48.2742 39.9599L48.2673 39.9677L48.2615 39.9765L46.1082 42.9042L31.6267 28.4228C30.8616 27.5235 30.5485 27.1155 30.574 26.5556L30.575 26.5439L30.574 26.5331C30.5485 25.9732 30.8613 25.5646 31.6267 24.665L46.1082 10.1835L48.2615 13.1122Z" fill="url(#paint1_linear_4872_86950)" stroke="#41CF6E" stroke-width="0.5"/>
<path d="M26.033 31.0741L26.0447 31.0751L26.0554 31.0741C26.6153 31.0486 27.0234 31.3618 27.9226 32.1268L42.4031 46.6073L39.4763 48.7616L39.4675 48.7675L39.4597 48.7743C38.9661 49.2057 38.6449 49.3658 38.3748 49.3661C38.1111 49.3662 37.8174 49.213 37.3806 48.7841L29.0105 40.4989L28.5847 40.077V51.6639C28.5855 51.8242 28.5789 51.9328 28.5613 52.0116C28.5452 52.0831 28.5239 52.1139 28.5007 52.1337C28.4724 52.1579 28.4137 52.1898 28.2849 52.2137C28.1561 52.2377 27.9781 52.2495 27.7302 52.2499H24.5447C24.297 52.2495 24.1188 52.2376 23.99 52.2137C23.8615 52.1899 23.8027 52.1579 23.7742 52.1337C23.751 52.1139 23.7287 52.0832 23.7126 52.0116C23.695 51.9328 23.6894 51.8242 23.6902 51.6639V39.8934L23.2644 40.3153L14.7068 48.7841C14.2701 49.213 13.9773 49.3663 13.7136 49.3661C13.4435 49.3658 13.1223 49.2057 12.6287 48.7743L12.6208 48.7675L12.6121 48.7616L9.68433 46.6073L24.1648 32.1268C25.0645 31.3614 25.473 31.0486 26.033 31.0741Z" fill="url(#paint2_linear_4872_86950)" stroke="#41CF6E" stroke-width="0.5"/>
<path d="M20.373 24.665C21.1385 25.5647 21.4513 25.9732 21.4258 26.5331L21.4248 26.5439L21.4258 26.5556C21.4513 27.1155 21.1382 27.5234 20.373 28.4228L5.8916 42.9033L3.73926 39.9765L3.73242 39.9677L3.72559 39.9599C3.29417 39.4663 3.13406 39.145 3.13379 38.8749C3.1336 38.6113 3.286 38.3175 3.71484 37.8808L12.001 29.5107L12.4229 29.0849H0.835938C0.675645 29.0857 0.567055 29.0791 0.488281 29.0615C0.417146 29.0455 0.38697 29.0239 0.367188 29.0009C0.342948 28.9726 0.310112 28.9141 0.286133 28.7851C0.262218 28.6563 0.250369 28.4782 0.25 28.2304V25.0449C0.250363 24.7972 0.262253 24.619 0.286133 24.4902C0.310106 24.3611 0.342938 24.3027 0.367188 24.2744C0.386973 24.2512 0.416782 24.2289 0.488281 24.2128C0.567055 24.1952 0.675645 24.1896 0.835938 24.1904H12.6064L12.1855 23.7646L3.71484 15.207H3.71582C3.28699 14.7703 3.13362 14.4774 3.13379 14.2138C3.13406 13.9437 3.29418 13.6224 3.72559 13.1288L3.73242 13.121L3.73926 13.1122L5.8916 10.1845L20.373 24.665Z" fill="url(#paint3_linear_4872_86950)" stroke="#41CF6E" stroke-width="0.5"/>
<path d="M75.44 42.89L64 10.11H70.512L78.828 35.278L87.188 10.11H93.7L82.304 42.89H75.44Z" fill="white"/>
<path d="M106.04 43.418C103.576 43.418 101.42 42.8607 99.5723 41.746C97.7243 40.6314 96.2869 39.1354 95.2603 37.258C94.2336 35.3514 93.7203 33.2247 93.7203 30.878C93.7203 28.502 94.2336 26.3754 95.2603 24.498C96.3163 22.6207 97.7389 21.1394 99.5283 20.054C101.318 18.9687 103.342 18.426 105.6 18.426C108.064 18.426 110.162 18.9687 111.892 20.054C113.623 21.11 114.943 22.518 115.852 24.278C116.791 26.038 117.26 27.9887 117.26 30.13C117.26 30.57 117.231 31.01 117.172 31.45C117.143 31.8607 117.07 32.2274 116.952 32.55H99.7043C99.8803 34.3394 100.555 35.762 101.728 36.818C102.902 37.8447 104.354 38.358 106.084 38.358C107.404 38.358 108.519 38.0794 109.428 37.522C110.367 36.9647 111.1 36.2167 111.628 35.278L116.292 37.566C115.559 39.2674 114.268 40.6754 112.42 41.79C110.602 42.8754 108.475 43.418 106.04 43.418ZM105.6 23.178C104.163 23.178 102.916 23.618 101.86 24.498C100.834 25.3487 100.159 26.566 99.8363 28.15H111.1C110.983 26.6834 110.411 25.4954 109.384 24.586C108.387 23.6474 107.126 23.178 105.6 23.178Z" fill="white"/>
<path d="M121.63 42.89V9.58203H127.394V42.89H121.63Z" fill="white"/>
<path d="M144.42 43.418C142.073 43.418 139.932 42.8754 137.996 41.79C136.089 40.7047 134.564 39.2234 133.42 37.346C132.305 35.4687 131.748 33.3274 131.748 30.922C131.748 28.5167 132.305 26.3754 133.42 24.498C134.564 22.6207 136.089 21.1394 137.996 20.054C139.902 18.9687 142.044 18.426 144.42 18.426C146.737 18.426 148.849 18.9687 150.756 20.054C152.662 21.1394 154.188 22.6207 155.332 24.498C156.476 26.3754 157.048 28.5167 157.048 30.922C157.048 33.3274 156.476 35.4834 155.332 37.39C154.188 39.2674 152.662 40.7487 150.756 41.834C148.849 42.89 146.737 43.418 144.42 43.418ZM144.42 38.138C145.681 38.138 146.81 37.83 147.808 37.214C148.805 36.598 149.582 35.7474 150.14 34.662C150.726 33.5767 151.02 32.33 151.02 30.922C151.02 29.5434 150.726 28.3114 150.14 27.226C149.582 26.1407 148.805 25.29 147.808 24.674C146.81 24.0287 145.681 23.706 144.42 23.706C143.1 23.706 141.941 24.0287 140.944 24.674C139.946 25.29 139.154 26.1407 138.568 27.226C138.01 28.3114 137.732 29.5434 137.732 30.922C137.732 32.33 138.01 33.5767 138.568 34.662C139.154 35.7474 139.946 36.598 140.944 37.214C141.941 37.83 143.1 38.138 144.42 38.138Z" fill="white"/>
<path d="M158.403 42.89L166.763 30.878L158.359 18.954H165.135L170.151 26.39L175.211 18.954H181.943L173.583 30.878L181.899 42.89H175.167L170.151 35.41L165.179 42.89H158.403Z" fill="white"/>
<path d="M199.515 42.89L190.715 10.11H197.139L203.211 34.706L209.591 10.11H215.795L222.131 34.706L228.203 10.11H234.627L225.827 42.89H218.963L212.671 19.306L206.379 42.89H199.515Z" fill="white"/>
<path d="M243.273 43.418C240.779 43.418 238.784 42.802 237.288 41.57C235.792 40.338 235.044 38.666 235.044 36.554C235.044 34.5594 235.719 32.902 237.068 31.582C238.418 30.262 240.5 29.3674 243.316 28.898L250.445 27.754V26.962C250.445 25.9354 250.034 25.0847 249.212 24.41C248.42 23.706 247.364 23.354 246.044 23.354C244.783 23.354 243.683 23.6914 242.745 24.366C241.806 25.0114 241.116 25.8767 240.676 26.962L235.969 24.674C236.673 22.7967 237.963 21.286 239.84 20.142C241.718 18.998 243.859 18.426 246.264 18.426C248.23 18.426 249.946 18.7927 251.413 19.526C252.909 20.2594 254.082 21.2714 254.932 22.562C255.783 23.8234 256.208 25.29 256.208 26.962V42.89H250.753V40.382C248.875 42.406 246.382 43.418 243.273 43.418ZM241.029 36.334C241.029 37.1554 241.336 37.8154 241.952 38.314C242.568 38.7834 243.361 39.018 244.329 39.018C246.147 39.018 247.614 38.4607 248.729 37.346C249.873 36.202 250.445 34.794 250.445 33.122V32.154L244.417 33.166C242.158 33.5767 241.029 34.6327 241.029 36.334Z" fill="white"/>
<path d="M261.536 42.89V9.58203H267.3V42.89H261.536Z" fill="white"/>
<path d="M272.622 42.89V9.58203H278.386V42.89H272.622Z" fill="white"/>
<path d="M295.06 43.418C292.596 43.418 290.44 42.8607 288.592 41.746C286.744 40.6314 285.306 39.1354 284.28 37.258C283.253 35.3514 282.74 33.2247 282.74 30.878C282.74 28.502 283.253 26.3754 284.28 24.498C285.336 22.6207 286.758 21.1394 288.548 20.054C290.337 18.9687 292.361 18.426 294.62 18.426C297.084 18.426 299.181 18.9687 300.912 20.054C302.642 21.11 303.962 22.518 304.872 24.278C305.81 26.038 306.28 27.9887 306.28 30.13C306.28 30.57 306.25 31.01 306.192 31.45C306.162 31.8607 306.089 32.2274 305.972 32.55H288.724C288.9 34.3394 289.574 35.762 290.748 36.818C291.921 37.8447 293.373 38.358 295.104 38.358C296.424 38.358 297.538 38.0794 298.448 37.522C299.386 36.9647 300.12 36.2167 300.648 35.278L305.312 37.566C304.578 39.2674 303.288 40.6754 301.44 41.79C299.621 42.8754 297.494 43.418 295.06 43.418ZM294.62 23.178C293.182 23.178 291.936 23.618 290.88 24.498C289.853 25.3487 289.178 26.566 288.856 28.15H300.12C300.002 26.6834 299.43 25.4954 298.404 24.586C297.406 23.6474 296.145 23.178 294.62 23.178Z" fill="white"/>
<path d="M321.561 43.154C318.863 43.154 316.765 42.4207 315.269 40.954C313.803 39.458 313.069 37.3607 313.069 34.662V24.102H308.933V18.954H309.373C310.547 18.954 311.456 18.646 312.101 18.03C312.747 17.414 313.069 16.5194 313.069 15.346V13.498H318.833V18.954H324.333V24.102H318.833V34.354C318.833 35.5567 319.156 36.4807 319.801 37.126C320.447 37.7714 321.473 38.094 322.881 38.094C323.321 38.094 323.835 38.05 324.421 37.962V42.89C324.011 42.9487 323.541 43.0074 323.013 43.066C322.485 43.1247 322.001 43.154 321.561 43.154Z" fill="white"/>
<defs>
<linearGradient id="paint0_linear_4872_86950" x1="26.079" y1="-10.348" x2="26.079" y2="26.5439" gradientUnits="userSpaceOnUse">
<stop stop-color="#198946"/>
<stop offset="1" stop-color="#4CE379"/>
</linearGradient>
<linearGradient id="paint1_linear_4872_86950" x1="63.6386" y1="26.5791" x2="25.9561" y2="26.5791" gradientUnits="userSpaceOnUse">
<stop stop-color="#198946"/>
<stop offset="1" stop-color="#4CE379"/>
</linearGradient>
<linearGradient id="paint2_linear_4872_86950" x1="26.0878" y1="63.3919" x2="26.0878" y2="26.5" gradientUnits="userSpaceOnUse">
<stop stop-color="#198946"/>
<stop offset="1" stop-color="#4CE379"/>
</linearGradient>
<linearGradient id="paint3_linear_4872_86950" x1="-12.1216" y1="26.5095" x2="26.1757" y2="26.5095" gradientUnits="userSpaceOnUse">
<stop stop-color="#198946"/>
<stop offset="1" stop-color="#4CE379"/>
</linearGradient>
</defs>
</svg>
