<svg width="156" height="122" viewBox="0 0 156 122" fill="none" xmlns="http://www.w3.org/2000/svg">
<g clip-path="url(#clip0_4407_84599)">
<rect width="156" height="122" rx="16" fill="url(#paint0_radial_4407_84599)"/>
<path opacity="0.5" d="M148.763 104.038C149.977 103.983 150.862 104.662 152.78 106.295L183.844 137.374L177.537 142.015L177.521 142.027L177.504 142.041C176.446 142.966 175.75 143.319 175.157 143.319C174.577 143.32 173.939 142.981 173.002 142.061L155.069 124.301L154.218 123.457V148.208C154.219 148.552 154.207 148.788 154.168 148.961C154.132 149.12 154.082 149.192 154.025 149.241C153.958 149.299 153.826 149.37 153.546 149.422C153.267 149.474 152.883 149.499 152.352 149.5H145.526C144.995 149.499 144.61 149.474 144.331 149.422C144.052 149.37 143.92 149.299 143.853 149.241C143.796 149.192 143.746 149.12 143.71 148.961C143.671 148.788 143.658 148.552 143.66 148.208V123.062L142.808 123.906L124.477 142.061C123.54 142.981 122.902 143.32 122.322 143.319C121.73 143.319 121.033 142.966 119.975 142.041L119.959 142.027L119.941 142.015L113.634 137.374L144.691 106.301C146.615 104.664 147.501 103.983 148.717 104.038L148.739 104.039L148.763 104.038ZM136.688 90.4561C138.322 92.3762 139.002 93.262 138.946 94.4775L138.945 94.5L138.946 94.5225C139.002 95.7378 138.321 96.6233 136.688 98.543L105.621 129.615L100.982 123.308L100.971 123.291L100.956 123.274C100.031 122.216 99.6795 121.52 99.6787 120.927C99.6781 120.347 100.016 119.709 100.937 118.771L100.936 118.771L118.69 100.832L119.533 99.9805H94.791C94.4476 99.9822 94.2121 99.9694 94.0391 99.9307C93.8804 99.8952 93.8076 99.845 93.7588 99.7881C93.7011 99.7207 93.6301 99.5883 93.5781 99.3086C93.5392 99.0992 93.5149 98.8306 93.5049 98.4854L93.5 98.1133V91.2852L93.5049 90.9141C93.5149 90.5686 93.5393 90.3003 93.5781 90.0908C93.63 89.8112 93.7011 89.6788 93.7588 89.6113C93.8076 89.5543 93.8803 89.5043 94.0391 89.4688C94.2121 89.43 94.4475 89.4173 94.791 89.4189H119.928L119.085 88.5664L100.936 70.2275C100.016 69.2907 99.6781 68.6533 99.6787 68.0732C99.6795 67.4803 100.031 66.7835 100.956 65.7256L100.971 65.709L100.982 65.6924L105.621 59.3838L136.688 90.4561ZM196.238 65.6924L196.251 65.709L196.265 65.7256C197.189 66.7836 197.541 67.4803 197.542 68.0732C197.543 68.6533 197.205 69.2907 196.285 70.2275L178.53 88.168L177.688 89.0195H202.43C202.773 89.0178 203.009 89.0307 203.182 89.0693C203.34 89.1048 203.413 89.155 203.462 89.2119C203.52 89.2793 203.591 89.4117 203.643 89.6914C203.694 89.9707 203.72 90.3548 203.721 90.8867V97.7148L203.716 98.0859C203.706 98.4314 203.681 98.6997 203.643 98.9092C203.591 99.189 203.52 99.3212 203.462 99.3887C203.413 99.4457 203.341 99.4957 203.182 99.5312C203.009 99.57 202.773 99.5828 202.43 99.5811H177.293L178.136 100.434L196.284 118.771V118.771C197.205 119.709 197.543 120.346 197.542 120.927C197.541 121.52 197.189 122.216 196.265 123.274L196.251 123.291L196.238 123.308L191.599 129.615L160.536 98.5479C158.9 96.6249 158.219 95.7388 158.274 94.5225L158.275 94.5L158.274 94.4775C158.219 93.2608 158.9 92.3743 160.537 90.4502L191.599 59.3838L196.238 65.6924ZM143.262 40.792C143.26 40.4482 143.273 40.2122 143.312 40.0391C143.347 39.8803 143.397 39.8076 143.454 39.7588C143.522 39.7011 143.654 39.6301 143.934 39.5781C144.143 39.5393 144.411 39.5149 144.756 39.5049L145.128 39.5H151.953L152.324 39.5049C152.67 39.5149 152.938 39.5392 153.147 39.5781C153.427 39.6301 153.56 39.7011 153.627 39.7588C153.684 39.8076 153.734 39.8803 153.77 40.0391C153.808 40.2122 153.821 40.4482 153.819 40.792V65.9375L154.671 65.0938L173.002 46.9385L173.003 46.9395C173.94 46.0185 174.577 45.6801 175.157 45.6807C175.75 45.6814 176.446 46.0338 177.504 46.959L177.521 46.9727L177.537 46.9854L183.844 51.625L152.78 82.7041C150.862 84.3369 149.977 85.0171 148.763 84.9619L148.739 84.9609L148.717 84.9619C147.501 85.0174 146.615 84.3356 144.691 82.6982L113.634 51.625L119.941 46.9854L119.959 46.9727L119.975 46.959C121.033 46.0336 121.73 45.6813 122.322 45.6807C122.83 45.6802 123.381 45.9386 124.139 46.6201L124.477 46.9395L142.409 64.6992L143.262 65.543V40.792Z" stroke="url(#paint1_linear_4407_84599)" stroke-opacity="0.5"/>
<path d="M40.235 47.4669V53.5939L35.5663 48.9728C35.0704 48.4857 34.7729 48.4874 34.2176 48.9728L32.4539 50.2696L40.65 58.4657C41.1406 58.8832 41.4127 59.1055 41.7912 59.0882C42.1697 59.1055 42.4418 58.8832 42.9324 58.4657L51.1285 50.2696L49.3648 48.9728C48.8095 48.4874 48.512 48.4857 48.0161 48.9728L43.2437 53.6965V47.4669C43.2454 47.1065 43.1922 47.0008 42.6279 47H40.8508C40.2865 47.0008 40.2332 47.1065 40.235 47.4669Z" fill="white"/>
<path d="M55.7998 59.9691H49.6728L54.2939 55.3004C54.7809 54.8045 54.7793 54.507 54.2939 53.9517L52.997 52.188L44.8009 60.3841C44.3834 60.8747 44.1612 61.1468 44.1784 61.5253C44.1612 61.9039 44.3834 62.1759 44.8009 62.6666L52.997 70.8627L54.2939 69.0989C54.7793 68.5437 54.7809 68.2462 54.2939 67.7502L49.5701 62.9778H55.7998C56.1601 62.9796 56.2658 62.9263 56.2666 62.362V60.5849C56.2658 60.0206 56.1601 59.9674 55.7998 59.9691Z" fill="white"/>
<path d="M43.3474 75.5324V69.4055L48.0161 74.0265C48.512 74.5136 48.8095 74.5119 49.3648 74.0265L51.1285 72.7297L42.9324 64.5336C42.4418 64.1161 42.1697 63.8938 41.7912 63.9111C41.4127 63.8938 41.1406 64.1161 40.65 64.5336L32.4539 72.7297L34.2176 74.0265C34.7729 74.5119 35.0704 74.5136 35.5663 74.0265L40.3387 69.3028V75.5324C40.3369 75.8928 40.3902 75.9985 40.9545 75.9993H42.7316C43.2959 75.9985 43.3491 75.8928 43.3474 75.5324Z" fill="white"/>
<path d="M27.7327 63.0815L33.8597 63.0815L29.2387 67.7502C28.7516 68.2461 28.7533 68.5437 29.2387 69.0989L30.5355 70.8627L38.7316 62.6666C39.1491 62.1759 39.3714 61.9039 39.3541 61.5253C39.3714 61.1468 39.1491 60.8747 38.7316 60.3841L30.5355 52.188L29.2387 53.9517C28.7533 54.507 28.7516 54.8045 29.2387 55.3004L33.9624 60.0729L27.7327 60.0729C27.3724 60.0711 27.2667 60.1243 27.2659 60.6886L27.2659 62.4657C27.2667 63.0301 27.3724 63.0833 27.7327 63.0815Z" fill="white"/>
<path d="M69.3378 70.6421L62.9578 52.3609H66.5895L71.2273 66.3969L75.8896 52.3609H79.5213L73.1658 70.6421H69.3378Z" fill="white"/>
<path d="M86.4034 70.9366C85.0293 70.9366 83.8269 70.6257 82.7962 70.0041C81.7656 69.3825 80.964 68.5482 80.3915 67.5012C79.8189 66.4378 79.5326 65.2518 79.5326 63.9431C79.5326 62.618 79.8189 61.432 80.3915 60.385C80.9804 59.338 81.7738 58.5119 82.7717 57.9066C83.7696 57.3013 84.8984 56.9987 86.158 56.9987C87.5322 56.9987 88.7019 57.3013 89.667 57.9066C90.6322 58.4955 91.3684 59.2807 91.8755 60.2623C92.399 61.2438 92.6607 62.3317 92.6607 63.5259C92.6607 63.7713 92.6444 64.0167 92.6117 64.2621C92.5953 64.4911 92.5544 64.6956 92.489 64.8755H82.8699C82.968 65.8734 83.3443 66.6669 83.9986 67.2558C84.653 67.8284 85.4628 68.1146 86.4279 68.1146C87.1641 68.1146 87.7857 67.9592 88.2929 67.6484C88.8164 67.3376 89.2253 66.9204 89.5198 66.3969L92.1209 67.6729C91.7119 68.6218 90.9921 69.407 89.9615 70.0286C88.9472 70.6339 87.7612 70.9366 86.4034 70.9366ZM86.158 59.6488C85.3564 59.6488 84.6612 59.8942 84.0722 60.385C83.4997 60.8594 83.1234 61.5383 82.9435 62.4217H89.2253C89.1599 61.6037 88.8409 60.9412 88.2683 60.4341C87.7121 59.9106 87.0087 59.6488 86.158 59.6488Z" fill="white"/>
<path d="M95.0975 70.6421V52.0664H98.3121V70.6421H95.0975Z" fill="white"/>
<path d="M107.807 70.9366C106.499 70.9366 105.304 70.6339 104.225 70.0286C103.161 69.4234 102.311 68.5972 101.673 67.5502C101.051 66.5033 100.74 65.3091 100.74 63.9676C100.74 62.6262 101.051 61.432 101.673 60.385C102.311 59.338 103.161 58.5119 104.225 57.9066C105.288 57.3013 106.482 56.9987 107.807 56.9987C109.1 56.9987 110.278 57.3013 111.341 57.9066C112.404 58.5119 113.255 59.338 113.893 60.385C114.531 61.432 114.85 62.6262 114.85 63.9676C114.85 65.3091 114.531 66.5114 113.893 67.5748C113.255 68.6218 112.404 69.4479 111.341 70.0532C110.278 70.6421 109.1 70.9366 107.807 70.9366ZM107.807 67.9919C108.511 67.9919 109.141 67.8202 109.697 67.4766C110.253 67.1331 110.687 66.6587 110.997 66.0534C111.325 65.4481 111.488 64.7529 111.488 63.9676C111.488 63.1987 111.325 62.5117 110.997 61.9064C110.687 61.3011 110.253 60.8267 109.697 60.4831C109.141 60.1232 108.511 59.9433 107.807 59.9433C107.071 59.9433 106.425 60.1232 105.869 60.4831C105.313 60.8267 104.871 61.3011 104.544 61.9064C104.233 62.5117 104.078 63.1987 104.078 63.9676C104.078 64.7529 104.233 65.4481 104.544 66.0534C104.871 66.6587 105.313 67.1331 105.869 67.4766C106.425 67.8202 107.071 67.9919 107.807 67.9919Z" fill="white"/>
<path d="M115.606 70.6421L120.268 63.9431L115.581 57.2931H119.36L122.158 61.4401L124.98 57.2931H128.734L124.072 63.9431L128.71 70.6421H124.955L122.158 66.4706L119.385 70.6421H115.606Z" fill="white"/>
</g>
<defs>
<radialGradient id="paint0_radial_4407_84599" cx="0" cy="0" r="1" gradientUnits="userSpaceOnUse" gradientTransform="translate(-45.4504 -34.9932) rotate(31.8838) scale(181.85 123.577)">
<stop stop-color="#7B847B"/>
<stop offset="0.6124" stop-color="#1C1E1C"/>
</radialGradient>
<linearGradient id="paint1_linear_4407_84599" x1="94.7119" y1="20.8866" x2="159.149" y2="124.181" gradientUnits="userSpaceOnUse">
<stop offset="0.257661" stop-color="#798F80" stop-opacity="0"/>
<stop offset="0.859404" stop-color="#D0F5DB"/>
</linearGradient>
<clipPath id="clip0_4407_84599">
<rect width="156" height="122" rx="16" fill="white"/>
</clipPath>
</defs>
</svg>
