<svg width="1080" height="1080" viewBox="0 0 1080 1080" fill="none" xmlns="http://www.w3.org/2000/svg">
<g filter="url(#filter0_d_8493_6223)">
<rect x="28" y="23" width="1024" height="1024" rx="152" fill="url(#paint0_linear_8493_6223)"/>
<path d="M493.249 104.326C493.235 101.563 493.328 99.312 493.737 97.4824C494.145 95.6599 494.864 94.2706 496.096 93.2168C497.332 92.1585 499.11 91.4168 501.676 90.9404C503.92 90.5237 506.752 90.3122 510.321 90.2617L511.897 90.25H566.436C570.76 90.2564 574.091 90.4642 576.656 90.9404C579.222 91.4168 581 92.1585 582.236 93.2168C583.468 94.2707 584.187 95.6598 584.595 97.4824C584.953 99.0834 585.069 101.007 585.083 103.314V296.11L585.509 295.689L731.972 150.722C739.574 143.256 745.599 139.595 751.809 139.602C758.025 139.608 764.507 143.287 773.023 150.731L773.031 150.738L773.04 150.745L826.933 190.371L575.612 441.69C560.536 454.519 552.266 461.254 540.769 460.73L540.758 460.729L540.746 460.73C529.248 461.254 520.978 454.519 505.901 441.69L254.581 190.371L308.475 150.745L308.483 150.738L308.491 150.731C317.008 143.287 323.49 139.608 329.706 139.602C335.722 139.595 341.564 143.031 348.835 150.033L349.544 150.722L492.823 292.539L493.249 292.961V104.326Z" fill="url(#paint1_linear_8493_6223)" stroke="#41CF6E" stroke-width="0.5"/>
<path d="M924.254 303.478L924.26 303.487L924.267 303.495C931.711 312.011 935.39 318.493 935.396 324.709C935.403 330.919 931.743 336.944 924.277 344.545L782.459 487.826L782.037 488.251H971.685C973.992 488.266 975.916 488.382 977.517 488.74C979.339 489.148 980.728 489.866 981.782 491.097C982.841 492.334 983.582 494.113 984.059 496.678C984.535 499.243 984.743 502.575 984.749 506.899V561.437L984.736 563.012C984.686 566.582 984.475 569.414 984.059 571.659C983.582 574.224 982.84 576.002 981.782 577.239C980.728 578.47 979.339 579.188 977.517 579.596C975.916 579.954 973.992 580.07 971.685 580.084H778.887L779.309 580.51L924.276 726.972V726.973C931.742 734.575 935.403 740.6 935.396 746.81C935.39 753.026 931.711 759.508 924.267 768.025L924.26 768.033L924.254 768.042L884.626 821.934L633.306 570.615C620.477 555.538 613.743 547.268 614.267 535.771L614.268 535.76L614.267 535.749C613.743 524.251 620.477 515.98 633.306 500.904L884.626 249.584L924.254 303.478Z" fill="url(#paint2_linear_8493_6223)" stroke="#41CF6E" stroke-width="0.5"/>
<path d="M540.769 609.27C552.266 608.746 560.536 615.481 575.612 628.309L826.933 879.628L773.04 919.255L773.031 919.262L773.023 919.269C764.507 926.713 758.025 930.393 751.809 930.399C745.599 930.405 739.574 926.745 731.972 919.279H731.971L588.691 777.461L588.266 777.04V966.686C588.251 968.993 588.136 970.917 587.777 972.518C587.37 974.341 586.65 975.73 585.419 976.784C584.182 977.842 582.405 978.584 579.839 979.06C577.273 979.536 573.942 979.744 569.617 979.75H515.08C510.756 979.744 507.424 979.536 504.858 979.06C502.293 978.584 500.515 977.842 499.278 976.784C498.047 975.73 497.328 974.341 496.92 972.518C496.562 970.917 496.446 968.993 496.432 966.686V773.89L496.006 774.311L349.544 919.279C341.942 926.745 335.916 930.405 329.706 930.399C323.49 930.393 317.008 926.713 308.491 919.269L308.483 919.262L308.475 919.255L254.581 879.628L505.901 628.309C520.742 615.681 528.988 608.958 540.209 609.25L540.746 609.27L540.758 609.271L540.769 609.27Z" fill="url(#paint3_linear_8493_6223)" stroke="#41CF6E" stroke-width="0.5"/>
<path d="M446.692 500.904C459.522 515.981 466.256 524.251 465.732 535.749L465.731 535.759L465.732 535.771C466.256 547.269 459.521 555.538 446.692 570.615L195.372 821.934L155.745 768.042L155.739 768.033L155.732 768.025L155.045 767.232C148.061 759.103 144.609 752.832 144.603 746.81C144.596 740.6 148.257 734.575 155.723 726.973L155.722 726.972L297.54 583.694L297.962 583.268H108.314C106.007 583.254 104.083 583.138 102.482 582.78C100.66 582.372 99.2706 581.653 98.2168 580.422C97.1585 579.186 96.4168 577.407 95.9404 574.841C95.4642 572.276 95.2563 568.945 95.25 564.621V510.083L95.2617 508.507C95.3122 504.937 95.5236 502.106 95.9404 499.861C96.4168 497.295 97.1585 495.517 98.2168 494.281C99.2706 493.05 100.66 492.331 102.482 491.923C104.083 491.565 106.007 491.449 108.314 491.435H301.112L300.69 491.009L155.722 344.545C148.256 336.944 144.596 330.919 144.603 324.709C144.609 318.493 148.288 312.011 155.732 303.495L155.739 303.487L155.745 303.478L195.372 249.584L446.692 500.904Z" fill="url(#paint4_linear_8493_6223)" stroke="#41CF6E" stroke-width="0.5"/>
</g>
<defs>
<filter id="filter0_d_8493_6223" x="0.200001" y="0.200001" width="1079.6" height="1079.6" filterUnits="userSpaceOnUse" color-interpolation-filters="sRGB">
<feFlood flood-opacity="0" result="BackgroundImageFix"/>
<feColorMatrix in="SourceAlpha" type="matrix" values="0 0 0 0 0 0 0 0 0 0 0 0 0 0 0 0 0 0 127 0" result="hardAlpha"/>
<feMorphology radius="2" operator="dilate" in="SourceAlpha" result="effect1_dropShadow_8493_6223"/>
<feOffset dy="5"/>
<feGaussianBlur stdDeviation="12.9"/>
<feComposite in2="hardAlpha" operator="out"/>
<feColorMatrix type="matrix" values="0 0 0 0 0 0 0 0 0 0 0 0 0 0 0 0 0 0 0.25 0"/>
<feBlend mode="normal" in2="BackgroundImageFix" result="effect1_dropShadow_8493_6223"/>
<feBlend mode="normal" in="SourceGraphic" in2="effect1_dropShadow_8493_6223" result="shape"/>
</filter>
<linearGradient id="paint0_linear_8493_6223" x1="50.3418" y1="1047" x2="990.56" y2="23" gradientUnits="userSpaceOnUse">
<stop stop-color="#21232C"/>
<stop offset="1" stop-color="#0B3D2A"/>
</linearGradient>
<linearGradient id="paint1_linear_8493_6223" x1="541.353" y1="-95.6673" x2="541.353" y2="535.752" gradientUnits="userSpaceOnUse">
<stop stop-color="#198946"/>
<stop offset="1" stop-color="#4CE379"/>
</linearGradient>
<linearGradient id="paint2_linear_8493_6223" x1="1184.2" y1="536.355" x2="539.248" y2="536.355" gradientUnits="userSpaceOnUse">
<stop stop-color="#198946"/>
<stop offset="1" stop-color="#4CE379"/>
</linearGradient>
<linearGradient id="paint3_linear_8493_6223" x1="541.503" y1="1166.42" x2="541.503" y2="535" gradientUnits="userSpaceOnUse">
<stop stop-color="#198946"/>
<stop offset="1" stop-color="#4CE379"/>
</linearGradient>
<linearGradient id="paint4_linear_8493_6223" x1="-112.466" y1="535.164" x2="543.007" y2="535.164" gradientUnits="userSpaceOnUse">
<stop stop-color="#198946"/>
<stop offset="1" stop-color="#4CE379"/>
</linearGradient>
</defs>
</svg>
